<svg id="svg" version="1.1" viewBox="0 0 300 300" width="300" height="300" xmlns="http://www.w3.org/2000/svg"><svg xmlns="http://www.w3.org/2000/svg"><defs><clipPath id="clip-1"><rect x="0" y="0" transform="scale(0.14648,0.14648)" width="2048" height="2048" fill="none"/></clipPath><linearGradient x1="180.85986" y1="113.26948" x2="184.7666" y2="114.2165" gradientUnits="userSpaceOnUse" id="color-1"><stop offset="0" stop-color="#3e5773"/><stop offset="1" stop-color="#7086a1"/></linearGradient><linearGradient x1="164.58838" y1="210.3252" x2="137.9918" y2="99.76948" gradientUnits="userSpaceOnUse" id="color-2"><stop offset="0" stop-color="#8093aa"/><stop offset="1" stop-color="#afc6da"/></linearGradient><linearGradient x1="149.89307" y1="221.34375" x2="149.83301" y2="243.1582" gradientUnits="userSpaceOnUse" id="color-3"><stop offset="0" stop-color="#5e748a"/><stop offset="1" stop-color="#94a9c0"/></linearGradient><linearGradient x1="183.9375" y1="236.22656" x2="182.5957" y2="242.01855" gradientUnits="userSpaceOnUse" id="color-4"><stop offset="0" stop-color="#547183"/><stop offset="1" stop-color="#6a7b9e"/></linearGradient><linearGradient x1="119.95034" y1="188.64111" x2="190.16162" y2="262.9043" gradientUnits="userSpaceOnUse" id="color-5"><stop offset="0" stop-color="#8293a8"/><stop offset="1" stop-color="#99b4cb"/></linearGradient><linearGradient x1="89.054" y1="216.73975" x2="78.73594" y2="215.13574" gradientUnits="userSpaceOnUse" id="color-6"><stop offset="0" stop-color="#9baec3"/><stop offset="1" stop-color="#bcd2df"/></linearGradient><linearGradient x1="201.28711" y1="84.12993" x2="167.96924" y2="71.4249" gradientUnits="userSpaceOnUse" id="color-7"><stop offset="0" stop-color="#8498ab"/><stop offset="1" stop-color="#a6bbd1"/></linearGradient><linearGradient x1="149.85645" y1="52.42954" x2="149.47852" y2="45.18413" gradientUnits="userSpaceOnUse" id="color-8"><stop offset="0" stop-color="#9ab2c5"/><stop offset="1" stop-color="#c1dff0"/></linearGradient></defs><g clip-path="url(#clip-1)" fill="none" fill-rule="nonzero" stroke="none" stroke-width="1" stroke-linecap="butt" stroke-linejoin="miter" stroke-miterlimit="10" stroke-dasharray="" stroke-dashoffset="0" font-family="none" font-weight="none" font-size="none" text-anchor="none" style="mix-blend-mode: normal"><path d="M0,0h300v300h-300z" fill="#f7f8f8"/><path d="M130.55464,44.56201c2.42622,-0.16963 5.78306,-0.08013 8.29146,-0.08042l13.97959,-0.00923l10.43555,-0.00205c1.52344,0.0019 4.71387,-0.06226 6.12891,0.14956c1.41943,0.21255 4.93799,2.94595 6.12305,4.03008c5.22949,4.78755 10.18066,10.01235 15.22119,15.00718c1.66699,1.6519 3.38379,3.37119 4.81348,5.21909c0.15234,3.85225 0.01025,8.73955 0.00879,12.66108l-0.01465,25.0916l3.62988,-0.0104c4.02539,4.29902 8.41699,8.44028 12.43359,12.74312c0.104,4.76455 0,9.96548 0,14.7564l-0.00293,29.64419l0.01318,17.12256c0.00293,5.09912 0.51855,9.22412 -1.32861,14.07568c1.40918,1.06787 3.70459,3.47461 5.02734,4.8252c2.13135,2.17529 4.54248,4.47217 6.58008,6.70313l-0.00146,29.65137c-2.41113,4.01074 -4.87939,7.86328 -7.30225,11.83447c-2.28516,0.00146 -4.58789,-0.01465 -6.87305,0.13037c-2.36133,0.14941 -1.91748,-2.03906 -1.95703,-3.6416c-0.02344,-0.89502 0.00293,-1.81494 0.00586,-2.71289h-2.78027c0.01318,2.55908 0.00879,5.11816 -0.01172,7.67725c-3.57568,0.1377 -7.82666,0.03369 -11.46094,0.03369l-21.45996,-0.00293l-73.01177,-0.00879c-0.12173,-2.34668 -0.05259,-5.25 -0.04834,-7.63623l-2.79126,-0.03516c-0.01875,1.45166 0.38862,4.80615 -0.54419,6c-0.11382,0.14648 -0.74619,0.3457 -0.97896,0.33252c-2.4457,-0.13916 -4.88569,-0.12598 -7.33506,-0.12451c-2.16006,-3.85547 -4.9043,-7.83545 -7.15913,-11.77881l0.00967,-29.79785c3.07705,-3.42627 7.0292,-6.95508 10.23604,-10.35205c0.41353,-0.43799 0.6063,-0.45557 1.19487,-0.62988l0.18706,-0.05273l0.03281,-0.28711c-1.85039,-2.05225 -1.41592,-9.94922 -1.41357,-12.78516l0.0085,-15.99316l0.01201,-46.95688c1.10156,-1.33667 3.19292,-3.33853 4.45298,-4.6188l7.95542,-8.11099l3.6189,0.00659l0.00469,-37.48257c0.82134,-1.51406 6.35537,-7.1499 7.89419,-8.52993c4.80073,-4.30518 12.34687,-13.70654 18.17607,-16.05498z" fill="#0f1d2d"/><path d="M101.53608,108.25767l11.66851,-0.00454c1.51465,-0.00132 3.13989,-0.14956 4.63916,-0.05215c0.40239,0.02607 0.79277,0.14268 1.17158,0.27334c0.74004,0.25532 14.02163,0.03428 15.89824,0.03237l32.85059,0.0085l9.48486,-0.0019c0.70313,0.00454 2.84766,0.15864 3.27246,0.11455c0.23291,-0.16978 0.52002,-0.42495 0.82764,-0.41997c1.74316,0.02798 3.48779,0.04248 5.23242,0.04482l11.82422,0.0126c3.81738,3.93091 7.6582,7.83765 11.52539,11.71992l-0.00146,46.83853c0.00293,7.38574 0.10693,15.11133 -0.01611,22.46777c-4.48096,4.51318 -9.24756,9.24463 -13.59082,13.87793h-92.69253l-7.52871,-7.67578c-0.44297,-0.45264 -2.89146,-2.88428 -3.12656,-3.20361l-2.97656,-3.01025l-0.02446,-69.2562c3.48076,-3.44414 7.20688,-7.58291 10.75078,-10.85801c0.3123,-0.39521 0.44912,-0.5625 0.81138,-0.90791z" fill="#0f1d2d"/><path d="M119.58618,109.53867l60.70972,0.00879c0.42041,0.43198 0.83496,0.89502 1.24365,1.34063c0.83496,0.83994 1.59521,1.60518 2.37598,2.49331l0.62842,-0.19263l0.17139,0.35728c0.27979,0.09229 0.55957,0.17944 0.84229,0.26118c1.75781,1.77188 4.28027,4.16265 5.88135,5.97788l-0.04687,62.84868c-2.3584,2.54883 -4.91895,4.91309 -7.25244,7.42529l-0.375,0.30762c-1.97461,0.16113 -6.31348,0.04248 -8.40967,0.04102l-15.48633,-0.00439l-43.69468,0.02051c-2.39707,-2.24854 -5.25264,-5.33789 -7.63169,-7.73584l-0.01699,-62.9083c2.06675,-2.45669 5.16343,-5.0228 7.37124,-7.64033l-0.0835,0.74897l0.2499,0.15469l-0.22354,0.24346l-0.01699,-0.23218l0.08789,0.20405c0.38877,-0.60264 0.17754,-0.44209 0.78794,-0.74429c0.45981,-0.30835 2.5125,-2.54312 2.88794,-2.97539z" fill="#0f1d2d"/><path d="M115.89653,112.13936l-0.0835,0.74897l0.2499,0.15469l-0.22354,0.24346l-0.01699,-0.23218l0.08789,0.20405c0.38877,-0.60264 0.17754,-0.44209 0.78794,-0.74429l-0.64556,0.95405l0.16743,0.0167c0.93091,0.08628 1.7981,0.08188 2.73135,0.08789l0.12729,0.24741c-0.56382,0.47124 -2.0603,0.21123 -2.94565,0.41411c-0.80962,-0.05142 -0.99126,-0.0186 -1.68882,0.6353c-1.75342,1.64341 -3.38599,3.50684 -5.123,5.16606c0.17036,8.45391 0.03442,17.1085 0.0126,25.57251c-0.03135,12.17021 0.20288,24.54082 -0.02944,36.69316c2.25381,2.23389 4.94121,5.23535 7.22812,7.26123l66.88931,0.01172c2.354,-2.32178 4.80469,-4.98926 7.15723,-7.21143l-0.01611,-62.28179c-1.88965,-1.93169 -3.90527,-4.05366 -5.85205,-5.90405l0.84668,-0.36973c1.75781,1.77188 4.28027,4.16265 5.88135,5.97788l-0.04687,62.84868c-2.3584,2.54883 -4.91895,4.91309 -7.25244,7.42529l-0.375,0.30762c-1.97461,0.16113 -6.31348,0.04248 -8.40967,0.04102l-15.48633,-0.00439l-43.69468,0.02051c-2.39707,-2.24854 -5.25264,-5.33789 -7.63169,-7.73584l-0.01699,-62.9083c2.06675,-2.45669 5.16343,-5.0228 7.37124,-7.64033z" fill="#8497ab"/><path d="M180.86719,112.04443c0.14209,-0.73638 0.12451,-0.71807 0.67236,-1.15635c0.83496,0.83994 1.59521,1.60518 2.37598,2.49331c-0.52881,0.19321 -2.42725,0.21768 -2.9502,-0.00059z" fill="#0e1927"/><path d="M180.44531,112.87793l0.52002,0.50288c0.52295,0.21826 2.42139,0.1938 2.9502,0.00059l0.62842,-0.19263l0.17139,0.35728c0.27979,0.09229 0.55957,0.17944 0.84229,0.26118l-0.84668,0.36973c-1.35352,-0.04189 -3.0249,0.26177 -4.05029,-0.18472c-0.31348,-0.44487 -0.20215,-0.44897 -0.21533,-1.11431z" fill="url(#color-1)"/><path d="M118.81128,113.37085c0.07632,-0.85679 0.17285,-1.57251 0.10049,-2.43311l0.17417,-0.24272l0.13359,0.11455c0.02944,1.14785 0.04907,2.29585 0.05874,3.44399c-0.98921,-0.00308 -2.1728,0.02446 -3.14517,-0.01934c0.88535,-0.20288 2.38184,0.05713 2.94565,-0.41411l-0.12729,-0.24741c-0.93325,-0.00601 -1.80044,-0.00161 -2.73135,-0.08789l-0.16743,-0.0167z" fill="#213447"/><path d="M180.44531,112.87793c0.01172,-0.6583 0.01758,-0.75234 0.17432,-1.38618l0.1084,0.02432l0.13916,0.52837l0.09814,1.33638z" fill="#213447"/><path d="M123.47051,128.27725c0.68481,0.31172 2.42432,1.3856 3.13301,1.80278l5.7728,3.40371c7.37417,4.34824 14.83901,8.9373 22.2438,13.1603c0.14941,3.52734 0.01758,7.91748 0.03076,11.51074c-2.3042,1.59521 -5.86816,3.58008 -8.3436,5.05225l-14.40688,8.60303c-2.54795,1.53076 -6.11631,3.8042 -8.65781,5.07568c-0.12114,-1.37256 -0.05859,-3.57715 -0.05654,-5.02441l0.01597,-8.625c5.75859,-3.69727 12.13579,-7.03711 17.87197,-10.79443c-1.71797,-0.85693 -4.36289,-2.55029 -6.06709,-3.56982l-11.79448,-7.08838c0.00688,-2.16387 -0.21768,-12.1147 0.25811,-13.50645z" fill="#0894eb"/><path d="M124.44639,130.26108c0.61084,0.27188 2.14497,1.23325 2.77734,1.60635l5.07114,2.96118c7.01982,4.12046 14.04565,8.5229 21.14312,12.49365l0.02197,10.24512l-22.51055,13.40625l-6.44194,3.89063c-0.26865,-2.89307 -0.11104,-7.96436 -0.10562,-10.98486c6.00952,-3.61816 13.1061,-7.63623 18.87891,-11.41992c-1.67871,-1.229 -5.2207,-3.23291 -7.09497,-4.35791c-3.87935,-2.32778 -7.88159,-4.78608 -11.80444,-7.02378c0.0876,-3.5877 -0.03398,-7.18711 0.06504,-10.8167z" fill="#0f1d2d"/><path d="M153.5874,169.98486c7.21729,-0.20947 15.19043,-0.0542 22.45313,-0.03516c0.01904,1.44727 0.1333,5.58691 -0.09814,6.84521c-2.64844,0.15234 -5.99268,0.0542 -8.68066,0.0542c-4.5835,0.02051 -9.16699,0.01172 -13.75049,-0.0249c-0.09521,-1.10156 -0.18311,-5.92383 0.07617,-6.83936z" fill="#0894eb"/><path d="M154.62451,171.11279l20.23682,-0.01318c0.03809,1.50293 0.03369,3.00586 -0.01465,4.50879c-6.61377,-0.11719 -13.61426,-0.01758 -20.24121,0.02197c0.02344,-1.50586 0.03076,-3.01172 0.01904,-4.51758z" fill="#0f1d2d"/><path d="M101.53608,108.25767l11.66851,-0.00454c1.51465,-0.00132 3.13989,-0.14956 4.63916,-0.05215c0.40239,0.02607 0.79277,0.14268 1.17158,0.27334c0.74004,0.25532 14.02163,0.03428 15.89824,0.03237l32.85059,0.0085l9.48486,-0.0019c0.70313,0.00454 2.84766,0.15864 3.27246,0.11455c0.23291,-0.16978 0.52002,-0.42495 0.82764,-0.41997c1.74316,0.02798 3.48779,0.04248 5.23242,0.04482l11.82422,0.0126c3.81738,3.93091 7.6582,7.83765 11.52539,11.71992l-0.00146,46.83853c0.00293,7.38574 0.10693,15.11133 -0.01611,22.46777c-4.48096,4.51318 -9.24756,9.24463 -13.59082,13.87793h-92.69253l-7.52871,-7.67578c-0.44297,-0.45264 -2.89146,-2.88428 -3.12656,-3.20361l0.15615,-0.14209c0.31934,-1.15137 -1.81318,-2.15479 -2.03481,-3.19336c0.88374,0.45703 11.36675,11.55322 12.84214,13.04004c1.8041,0.25488 5.7835,0.13037 7.79268,0.13184l14.73706,-0.00439l50.39121,-0.00732l12.29297,-0.01611c1.5498,-0.00146 5.15918,-0.08057 6.5083,0.14502c4.22754,-4.00488 9.07178,-9.17432 13.15869,-13.40479l-0.00586,-68.38535c-3.43213,-3.67266 -7.29492,-7.47188 -10.86475,-11.04097l-16.46484,0.0249c0.54199,0.5877 1.11914,1.16016 1.65088,1.75107c0.58447,0.64834 1.37109,1.12852 1.40918,2.00024l-0.62842,0.19263c-0.78076,-0.88813 -1.54102,-1.65337 -2.37598,-2.49331c-0.40869,-0.44561 -0.82324,-0.90864 -1.24365,-1.34063l-60.70972,-0.00879c-0.37544,0.43228 -2.42813,2.66704 -2.88794,2.97539c-0.6104,0.3022 -0.39917,0.14165 -0.78794,0.74429l-0.08789,-0.20405l0.01699,0.23218l0.22354,-0.24346l-0.2499,-0.15469l0.0835,-0.74897c0.9145,-0.871 1.62349,-1.75459 2.42651,-2.71963l-11.08462,-0.01567c-1.61543,-0.00337 -3.39507,-0.04131 -5.01372,0.04951c-0.34702,0.01948 -0.61582,0.26294 -0.87568,0.47856c-0.85591,0.10312 -2.74146,2.95781 -3.98057,3.41675l-0.11353,-0.12158c0.30864,-0.57012 2.86201,-2.99429 3.56836,-3.79336l-0.09858,-0.26836c0.3123,-0.39521 0.44912,-0.5625 0.81138,-0.90791z" fill="url(#color-2)"/><path d="M89.97393,120.02358c3.48076,-3.44414 7.20688,-7.58291 10.75078,-10.85801l0.09858,0.26836c-0.70635,0.79907 -3.25972,3.22324 -3.56836,3.79336l0.11353,0.12158c1.23911,-0.45894 3.12466,-3.31362 3.98057,-3.41675c-0.95991,1.21318 -2.35137,2.52144 -3.44678,3.6438c-2.25176,2.30742 -4.60518,4.53398 -6.78091,6.91699l0.00557,45.91333c0.00059,7.10889 0.22368,15.60352 -0.03062,22.54834c0.22163,1.03857 2.35415,2.04199 2.03481,3.19336l-0.15615,0.14209l-2.97656,-3.01025z" fill="#cadce7"/><path d="M183.76465,190.3667l0.375,-0.30762l0.10693,0.13623c0.4248,0.53906 1.87354,2.00244 1.96289,2.37744c-0.44531,-0.12744 -1.87939,-1.69189 -2.44482,-2.20605z" fill="#213447"/><path d="M111.42817,194.64258l0.052,0.27832c-0.24038,0.5625 -1.43701,1.63623 -1.94751,2.12842c-0.14604,-0.50537 1.48682,-1.98193 1.89551,-2.40674z" fill="#213447"/><path d="M115.3916,190.39014l0.23145,0.12305c-0.0605,0.35742 -1.07358,1.27295 -1.44653,1.6875l-0.17168,-0.04248c0.13989,-0.54053 0.95742,-1.30811 1.38677,-1.76807z" fill="#213447"/><path d="M194.2998,114.81636c0.06738,0.07485 0.08936,0.18164 0.12744,0.27466c-0.32666,0.79424 -0.6416,1.14727 -1.1543,1.81729l-0.12158,-0.1585c0.17725,-0.58447 0.78809,-1.39644 1.14844,-1.93345z" fill="#213447"/><path d="M104.67773,221.2251l52.82666,-0.02051c14.5415,-0.00146 29.54004,-0.18896 44.04199,0.01904l-0.02051,22.19678l-70.19956,-0.00293l-23.88369,-0.01172c-2.33188,-0.01758 -7.0314,0.16553 -9.12686,-0.07471c-0.00542,-1.97607 -0.07178,-4.30225 -0.0019,-6.25049c-0.09009,-1.67578 -0.01816,-3.93164 -0.01377,-5.64258l0.01143,-10.21436c2.12197,-0.03955 4.24438,-0.03809 6.36621,0.00146z" fill="url(#color-3)"/><path d="M99.36929,222.31201c5.57271,0.13037 11.7394,0.04688 17.3354,0.00732l83.81924,0.00146c-0.04248,6.69141 -0.04541,13.38135 -0.00586,20.07275c-6.57275,-0.22119 -14.18848,-0.09814 -20.78906,-0.08057l-27.52295,0.00439l-35.84619,0.00879c-5.53301,0.00293 -11.46548,-0.104 -16.97241,0.00439c0.13579,-0.69873 0.07896,-4.93359 0.07632,-5.8916c-0.00703,-4.70947 -0.03853,-9.41748 -0.09448,-14.12695z" fill="#0f1d2d"/><path d="M164.99561,225.86426l4.35352,-0.01025l-0.01465,12.77637l-4.30078,-0.00586c-0.17725,-3.90088 -0.05127,-8.79492 -0.03809,-12.76025z" fill="#0894eb"/><path d="M130.51743,225.8584c1.41372,-0.0293 2.91855,-0.00293 4.34019,-0.00146c-0.12129,4.11768 -0.03237,8.5752 -0.05728,12.73389c-1.09819,0.08936 -3.11953,0.03369 -4.28877,0.03955c-0.05435,-4.21289 0.0022,-8.54883 0.00586,-12.77197z" fill="#0894eb"/><path d="M193.0708,225.80127l0.55078,0.01465c0.45264,0.56982 0.21973,11.30713 0.20947,12.81299l-3.43799,0.01904c-0.41309,0.01904 -0.38672,0.02783 -0.76758,-0.12744c-0.12891,-0.99756 -0.07031,-3.28125 -0.07031,-4.37256l0.00586,-8.32031c1.16162,0.02637 2.34668,-0.00732 3.50977,-0.02637z" fill="#0894eb"/><path d="M141.76128,225.83789c1.42764,-0.00586 2.85542,0.00146 4.28306,0.02197c0.01934,4.25244 0.01641,8.50488 -0.00879,12.75879l-4.275,0.00732c-0.023,-4.2627 -0.02285,-8.52539 0.00073,-12.78809z" fill="#0894eb"/><path d="M118.50293,225.87451l4.29053,-0.03223c0.03208,4.25977 0.02256,8.51953 -0.02856,12.7793l-4.27002,0.01172z" fill="#0894eb"/><path d="M171.24902,239.48291c-0.01611,0.63574 0.09521,0.62402 -0.22559,0.98584c-1.97314,0.29443 -5.53271,0.17725 -7.52197,-0.11426c-0.12744,-0.01904 -0.24902,-0.59033 -0.60937,-0.92725c-3.19482,-1.00928 -3.26953,1.00488 -4.01221,1.06787c-1.79004,0.15088 -5.4668,0.37793 -7.26855,-0.17285c-0.16406,-0.0498 -0.12012,-0.44678 -0.13184,-0.60937c-0.49365,-0.73242 -2.61621,-0.42773 -3.35596,-0.17285c-0.26953,0.09375 -0.33691,0.53174 -0.4043,0.7998c-0.82471,0.375 -6.96606,0.48633 -7.64487,-0.04541c-0.11104,-0.45264 -0.08906,-0.44092 -0.34995,-0.81885c-0.86997,-0.42334 -1.96582,-0.29883 -2.92412,-0.2417c-0.4834,0.51709 0.13271,0.56396 -0.36885,1.24219c-1.21494,0.18896 -6.27627,0.32373 -7.60181,-0.09521c-0.17725,-0.05566 -0.20376,-0.61523 -0.26982,-0.92578c-0.62607,-0.36768 -3.09961,-0.24463 -3.79644,-0.06152c-0.12085,0.28271 -0.23716,0.56836 -0.34893,0.85547c-0.81914,0.68848 -6.24902,0.36328 -7.55933,0.20068c-0.42598,-0.05273 -0.0271,-0.64746 -0.44063,-1.05029c-0.67939,-0.05127 -3.83525,-0.15967 -4.27705,0.12305c-0.03252,0.39111 0.00088,0.6709 -0.25781,0.94482c-1.46748,0.25635 -6.56147,0.48486 -7.62158,-0.52588c-0.07354,-0.51123 -0.05449,-0.68555 -0.4229,-1.08545l0.40327,-0.1626l0.30806,0.13477c0.04219,0.08789 0.35186,0.71777 0.398,0.75879c0.78384,0.70166 3.91289,0.10693 5.14614,0.33545c0.5981,-0.04395 1.05981,-0.1377 1.43613,-0.64746c0.76128,-1.02979 3.07471,-0.55811 4.26328,-0.70459c1.76323,-0.2168 1.09043,0.6167 1.69497,1.2085c1.65454,0.30029 4.10757,0.09961 5.84502,0.10254c0.41733,0.00146 0.78325,-0.78809 0.95933,-1.12354c0.21489,-0.02051 0.43022,-0.03662 0.64556,-0.05127c1.05088,-0.06592 3.68188,-0.34277 4.43262,0.31787c0.07134,0.39697 0.03047,0.46582 0.30571,0.73535c0.90015,0.23438 4.85112,0.17139 5.96338,0.00732c0.30615,-0.04395 0.41528,-0.53467 0.54507,-0.85547c0.54229,-0.51416 3.27275,-0.29736 4.15693,-0.27832c0.16436,0.50537 0.1853,0.56982 0.44019,1.03125c0.63809,0.42627 3.56382,0.18604 4.41958,0.2666c2.57944,0.24463 1.72397,-0.58887 2.4022,-1.24658c1.02686,-0.03076 3.16699,-0.13184 4.2627,-0.02637c0.43799,0.04248 -0.02783,0.65039 0.56836,1.17773c0.74121,0.15381 5.51221,0.25781 6.22705,-0.17725c0.31348,-0.66797 0.43945,-0.9082 1.28174,-0.98291c1.15137,-0.10254 2.58545,-0.15381 3.71484,0.06299c0.04541,0.00879 0.37793,1.02686 0.55664,1.02832c0.78076,0.33398 5.69238,0.18457 6.26953,-0.01172c0.28418,-0.39844 0.18604,-0.43799 0.21094,-1.03271l0.19336,0.62695c0.28857,0.1333 0.1626,0.10547 0.36328,0.1333z" fill="#5d748f"/><path d="M177.28857,225.86279c1.40771,-0.01025 2.81543,-0.01318 4.22314,-0.00879l-0.02344,12.76904l-4.23926,-0.00439c-0.03076,-4.25244 -0.01758,-8.50342 0.03955,-12.75586z" fill="#0894eb"/><path d="M153.3501,225.86572l4.25244,0.00879l-0.01465,12.73682l-4.23633,0.01172c-0.12598,-4.02832 -0.00732,-8.69238 -0.00146,-12.75732z" fill="#0894eb"/><path d="M106.08926,225.86133l4.22358,-0.01025l-0.06841,12.78955l-4.17524,-0.04102z" fill="#0894eb"/><path d="M170.69238,238.72266c0.90674,-0.10107 4.51172,-0.29004 5.18408,0.14063c0.14209,0.33691 0.31494,0.96094 0.66064,0.97852c1.40625,0.07324 5.02734,0.27979 6.18164,-0.23584c0.20361,-0.30469 0.23877,-0.38965 0.38672,-0.72803c0.71338,-0.43359 4.43701,-0.6167 5.10938,0.2168c0.31055,0.38672 0.28711,0.64307 0.96826,0.73975c1.4751,0.18018 3.37793,0.12451 4.86768,0.06445c0.49219,-0.02051 1.38867,-0.97705 1.76953,-0.84668c-0.01025,0.44971 0.04248,0.90674 -0.18457,1.26563c-1.2583,0.38672 -6.17578,0.3501 -7.54687,0.19629l-0.22559,-0.14648c-0.0498,-0.30322 -0.10107,-0.60645 -0.15527,-0.9082c-0.57129,-0.20654 -3.33691,-0.17578 -4.03418,-0.07617l-0.20361,0.15674c-0.04102,0.54932 0.05859,0.64307 -0.2373,0.92432c-1.03564,0.15527 -6.78516,0.23291 -7.56299,-0.0542c-0.43945,-0.83496 0.27832,-0.2417 -0.35742,-1.01367c-0.72803,-0.15088 -3.48047,-0.18311 -4.06348,0.08643c-0.20068,-0.02783 -0.07471,0 -0.36328,-0.1333z" fill="url(#color-4)"/><path d="M197.23975,226.89404c0.3252,0.51855 0.37646,10.4165 0.30469,11.54883l-0.32666,-0.13477c-0.45996,-0.80127 0.01611,-9.79102 0.02197,-11.41406z" fill="#425f7a"/><path d="M102.83262,227.15479c0.06826,0.31641 0.16626,2.49463 0.13052,2.80225c-0.17944,1.54102 0.554,7.61719 -0.41997,8.57227c-0.26265,-0.65332 0.17695,-10.23926 0.28945,-11.37451z" fill="#213447"/><path d="M98.31152,221.22363c2.12197,-0.03955 4.24438,-0.03809 6.36621,0.00146l-0.2332,0.17139c-0.7519,0.00879 -4.04092,-0.23291 -4.12222,0.6709l0.22251,-0.01318c1.09995,-0.05273 5.46006,0.03662 6.59136,0.08936c1.81685,0.08789 8.18027,-0.17725 9.46963,0.07617l0.09888,0.09961c-5.596,0.03955 -11.7627,0.12305 -17.3354,-0.00732c0.05596,4.70947 0.08745,9.41748 0.09448,14.12695c0.00264,0.95801 0.05947,5.19287 -0.07632,5.8916c-0.52515,-1.98926 0.34512,-13.65088 -0.38437,-14.40234l-0.19907,0.07617c-0.60322,1.1001 -0.31392,7.0415 -0.47183,8.88135l-0.01831,0.19482c-0.09009,-1.67578 -0.01816,-3.93164 -0.01377,-5.64258z" fill="#5d748f"/><path d="M138.13828,67.00737c7.29858,-0.20303 14.746,0.11851 22.04092,-0.02563c3.89941,-0.0769 5.60742,0.28022 8.28076,3.14941c1.74756,1.63564 3.37646,3.42891 5.13428,5.05093c3.39697,3.13315 2.46387,9.29282 2.45801,13.78154l-0.02344,17.60112c-4.62451,0.05332 -9.24902,0.06929 -13.875,0.0479c-12.62842,-0.12949 -25.48359,-0.01055 -38.12637,0.00732l-0.00132,-18.19878c0.00103,-2.93672 -0.10811,-6.01582 0.16187,-8.96895c0.3353,-3.66738 4.53618,-6.22104 6.82705,-8.81016c2.19155,-2.47676 3.84185,-3.37061 7.12324,-3.63472z" fill="#f7f8f8"/><path d="M133.21304,63.05625c10.8668,0.22632 22.58774,0.10942 33.49644,0.03662c2.84326,2.68623 5.65576,5.40513 8.4375,8.1564c1.48096,1.43848 2.98389,2.77441 4.42529,4.25757c0.12598,7.24893 0.17725,14.49902 0.15234,21.74912l-0.00586,6.49307c-0.00146,0.67646 0.15088,2.20898 -0.13037,2.73691c-0.32812,0.23174 -0.4248,0.17915 -0.84521,0.19424c-0.44971,-0.02402 -0.65332,-0.00073 -1.06201,-0.20127c-0.14648,-0.57524 -0.0835,-4.50161 -0.0835,-5.3855l-0.02197,-14.5626c-0.00439,-1.73071 0.08496,-6.38687 -0.21826,-7.90166l-0.21533,-0.70679l-0.26367,-0.09683c-0.27832,-0.68394 -0.71924,-1.56855 -0.75732,-2.2626c-0.71777,-1.17803 -7.98193,-7.99043 -9.31201,-9.20845c-0.43359,-0.23906 -0.73389,-0.40283 -1.13818,-0.6854c-0.16406,-0.46465 -0.12158,-0.30146 0.13916,-0.9c-0.37061,0.29194 -0.76758,0.63135 -1.24512,0.64395c-1.71387,0.04512 -3.49658,-0.02168 -5.21045,-0.03677l-9.98291,-0.03193l-9.09756,0.03047c-1.36787,0.00776 -3.8168,0.14897 -5.11494,-0.10283c-0.39844,0.19292 -1.4061,0.66138 -1.85625,1.05894c-3.55708,3.1415 -6.89546,6.70151 -10.21567,10.09775c-0.13418,-0.02549 -0.26851,-0.05098 -0.40269,-0.07646c-0.40547,-0.4251 -0.45513,-0.59121 -0.49424,-1.1981c-1.10918,0.91245 -0.93955,1.40508 -0.8792,2.77412c0.32021,-0.5981 0.31685,-1.26797 0.72026,-1.61235c0.47637,0.05596 0.70078,0.20391 1.12661,0.41382c-1.08325,3.49849 -0.70928,8.39414 -0.70107,12.13433l0.0249,16.16807c0.00044,1.54658 0.17285,1.55845 -1.31411,1.65205l-0.68892,-0.08306c-0.0605,-0.07808 -0.121,-0.1563 -0.18164,-0.23437c-0.06343,-8.24736 -0.01597,-23.18965 -0.01802,-30.72876c2.45112,-2.34507 4.88994,-4.70273 7.31646,-7.07314c1.66816,-1.64854 3.88916,-3.9665 5.61753,-5.50854z" fill="#8497ab"/><path d="M133.54248,64.16235c2.51147,-0.23452 6.11572,-0.14487 8.7167,-0.13916l15.63779,0.03237c2.56201,-0.00103 5.85645,0.08335 8.3291,-0.07646c-0.22705,0.34072 -0.32227,0.40488 -0.41602,0.78999c-0.37061,0.29194 -0.76758,0.63135 -1.24512,0.64395c-1.71387,0.04512 -3.49658,-0.02168 -5.21045,-0.03677l-9.98291,-0.03193l-9.09756,0.03047c-1.36787,0.00776 -3.8168,0.14897 -5.11494,-0.10283c-0.39844,0.19292 -1.4061,0.66138 -1.85625,1.05894c-3.55708,3.1415 -6.89546,6.70151 -10.21567,10.09775c-0.13418,-0.02549 -0.26851,-0.05098 -0.40269,-0.07646c-0.40547,-0.4251 -0.45513,-0.59121 -0.49424,-1.1981c1.48242,-1.74507 4.23325,-4.20088 5.92104,-5.89058c1.18066,-1.18198 4.21406,-4.21318 5.4312,-5.10117z" fill="#0894eb"/><path d="M121.31104,77.92822c0.32021,-0.5981 0.31685,-1.26797 0.72026,-1.61235c0.47637,0.05596 0.70078,0.20391 1.12661,0.41382c-1.08325,3.49849 -0.70928,8.39414 -0.70107,12.13433l0.0249,16.16807c0.00044,1.54658 0.17285,1.55845 -1.31411,1.65205l-0.0252,-19.94707c-0.00161,-1.5813 -0.10356,-7.72837 0.1686,-8.80884z" fill="#0894eb"/><path d="M177.35742,78.62915l1.3418,-0.54829c0.15234,2.59658 0.05566,5.53784 0.05273,8.16973l-0.00879,13.7269c-0.00439,1.89653 -0.1084,4.93579 0,6.70269c-0.44971,-0.02402 -0.65332,-0.00073 -1.06201,-0.20127c-0.14648,-0.57524 -0.0835,-4.50161 -0.0835,-5.3855l-0.02197,-14.5626c-0.00439,-1.73071 0.08496,-6.38687 -0.21826,-7.90166z" fill="#0894eb"/><path d="M167.68799,65.23315c3.39551,3.21885 7.42383,6.90557 10.5498,10.304c0.43359,0.50332 0.36621,0.50303 0.36035,1.30913l0.10107,1.23457l-1.3418,0.54829l-0.21533,-0.70679l-0.26367,-0.09683c-0.27832,-0.68394 -0.71924,-1.56855 -0.75732,-2.2626c-0.71777,-1.17803 -7.98193,-7.99043 -9.31201,-9.20845c0.21533,-0.40195 0.57568,-0.77183 0.87891,-1.12134z" fill="#0894eb"/><path d="M176.12109,75.56294c0.27686,0.33208 0.48633,0.58081 0.73242,0.94175l1.38428,-0.96753c0.43359,0.50332 0.36621,0.50303 0.36035,1.30913l0.10107,1.23457l-1.3418,0.54829l-0.21533,-0.70679l-0.26367,-0.09683c-0.27832,-0.68394 -0.71924,-1.56855 -0.75732,-2.2626z" fill="#007acb"/><path d="M176.12109,75.56294c0.27686,0.33208 0.48633,0.58081 0.73242,0.94175l1.38428,-0.96753c0.43359,0.50332 0.36621,0.50303 0.36035,1.30913c-0.37793,-0.54888 -0.13477,-0.38042 -0.70898,-0.58374c-0.58301,0.23174 -0.38672,0.127 -0.81152,0.67485c-0.104,0.45894 -0.04687,0.52969 0.06445,0.98496l-0.26367,-0.09683c-0.27832,-0.68394 -0.71924,-1.56855 -0.75732,-2.2626z" fill="#0e1927"/><path d="M166.22607,63.9791c0.49951,0.40591 1.01074,0.79614 1.46191,1.25405c-0.30322,0.34951 -0.66357,0.71938 -0.87891,1.12134c-0.43359,-0.23906 -0.73389,-0.40283 -1.13818,-0.6854c-0.16406,-0.46465 -0.12158,-0.30146 0.13916,-0.9c0.09375,-0.38511 0.18896,-0.44927 0.41602,-0.78999z" fill="#007acb"/><path d="M208.60693,197.9165c0.76611,-0.63428 1.20557,-1.10303 2.08447,-0.31494c1.22021,1.09424 2.34814,2.29395 3.49805,3.46289l5.99121,6.01318c0.06592,9.27686 0.1084,18.91553 0,28.18945c-3.21533,0.00439 -6.81592,-0.06885 -9.98877,0.03076l-0.50537,-0.20947c-0.23877,-5.14014 -0.03516,-11.76855 -0.0249,-17.02002c-1.40479,-1.46777 -2.82861,-2.9165 -4.27295,-4.34473l-110.9373,0.00293l-4.21772,4.33887c-0.02417,3.77197 -0.02344,7.54395 0.0022,11.31592c0.00352,1.71826 0.07764,4.26855 -0.10137,5.91357c0.39185,0.70605 0.53525,2.31445 0.8562,3.27832c-0.3312,0.32813 -0.22866,0.14063 -0.35083,0.56396c-0.41704,-1.0166 -0.71895,-2.60742 -0.96782,-3.71631c-1.55522,-0.06152 -8.53198,0.05859 -9.38159,-0.13184l0.43843,-0.04687l0.51313,-0.94922c0.84243,-0.18457 6.77593,-0.104 8.0395,-0.09961c0.16978,-5.32324 0.06958,-11.1709 0.03838,-16.52637l4.78037,-4.85742l111.7147,0.03076c1.55566,1.49854 3.27539,3.28271 4.75488,4.86328l-0.01758,16.53955c2.83301,-0.05127 5.66748,-0.06299 8.50049,-0.03369c-0.11719,-8.68799 0.08203,-17.43457 0.00146,-26.12549c-0.00439,-0.53613 -0.12744,-0.66211 -0.49365,-0.99316c-0.95215,-0.15967 -8.57666,-1.3125 -9.00732,-1.72266c0.16553,-0.36768 0.1582,-0.22852 0.15381,-0.59912c-0.27832,0.04395 -0.39111,0.07471 -0.64453,0.17285c-1.36084,-0.91406 0.78662,-3.58447 0.14795,-5.5752c-0.271,-0.22998 -0.12012,-0.13477 -0.6416,-0.09961l0.36035,-0.33838c-0.19629,-0.37061 -0.21973,-0.60205 -0.32227,-1.01221z" fill="url(#color-5)"/><path d="M208.9292,198.92871c0.4248,-0.32959 0.5625,-0.58008 0.95801,-0.54492c2.57666,2.44775 6.26807,6.09375 8.67334,8.70703c-0.95215,-0.15967 -8.57666,-1.3125 -9.00732,-1.72266c0.16553,-0.36768 0.1582,-0.22852 0.15381,-0.59912c-0.27832,0.04395 -0.39111,0.07471 -0.64453,0.17285c-1.36084,-0.91406 0.78662,-3.58447 0.14795,-5.5752c-0.271,-0.22998 -0.12012,-0.13477 -0.6416,-0.09961z" fill="#213447"/><path d="M90.13447,235.29492c0.39185,0.70605 0.53525,2.31445 0.8562,3.27832c-0.3312,0.32813 -0.22866,0.14063 -0.35083,0.56396c-0.41704,-1.0166 -0.71895,-2.60742 -0.96782,-3.71631c-1.55522,-0.06152 -8.53198,0.05859 -9.38159,-0.13184l0.43843,-0.04687c3.08745,0.09668 6.24961,-0.07617 9.40562,0.05273z" fill="#213447"/><path d="M204.62695,198.30469c0.3501,0.17285 0.19043,0.06299 0.4292,0.41309c-0.13184,0.37207 -6.2666,7.02393 -7.1499,7.94238l-65.98125,-0.00879l-19.88936,0.00586c-2.50869,0.00293 -7.7603,0.16406 -10.08486,-0.04834c-2.42915,-2.60156 -4.55815,-5.11523 -7.06919,-7.69189l-0.07544,-0.16406c1.15796,-1.33447 6.99214,5.23682 7.8293,6.16699c3.15791,-0.14648 7.01426,-0.06445 10.2126,-0.06885l18.38423,0.00439l40.79604,-0.00732c8.41992,0.03809 16.83984,0.02197 25.2583,-0.0498c1.67139,-1.67578 4.25684,-4.46338 6.23584,-5.71436c0.5874,-0.37207 0.39258,-0.10254 1.10449,-0.7793z" fill="#d91a1b"/><path d="M79.73188,207.11279c1.48228,-1.42529 9.21694,-9.73535 10.35249,-9.95215c0.53877,0.09229 0.5124,0.06299 0.90952,0.43066c0.62563,0.44971 1.42573,1.2627 1.94121,1.84863l-0.48735,0.51123c-0.80801,-0.38086 -1.54189,-1.06934 -2.10396,-1.75488c-0.14839,0.07324 -0.41396,0.1875 -0.53013,0.28125c-0.03076,1.72412 0.54653,3.29736 0.97119,4.96289c0.20859,0.81738 -0.01362,1.2627 -0.5855,1.81934c-3.19717,0.71045 -5.22993,2.20752 -8.429,2.80811c-0.27231,0.05127 -0.75146,-0.20654 -1.00693,-0.3457c0.22749,2.50342 -0.03296,5.23096 0.10942,7.67139c-0.00469,1.18213 -0.0416,2.52686 0.00747,3.6958c-0.03779,1.63916 -0.19351,14.39648 0.13975,15.0498l0.22192,0.15381l-0.51313,0.94922l-0.43843,0.04688c-0.26777,-0.03369 -0.24302,-0.04687 -0.49995,-0.14795c-0.23159,-0.88477 -0.06167,-6.2915 -0.06006,-7.4751z" fill="url(#color-6)"/><path d="M80.76343,207.72217c2.45508,-2.77295 6.34175,-6.39404 9.05024,-9.24463c-0.03076,1.72412 0.54653,3.29736 0.97119,4.96289c0.20859,0.81738 -0.01362,1.2627 -0.5855,1.81934c-3.19717,0.71045 -5.22993,2.20752 -8.429,2.80811c-0.27231,0.05127 -0.75146,-0.20654 -1.00693,-0.3457z" fill="#213447"/><path d="M90.9939,197.59131c0.62563,0.44971 1.42573,1.2627 1.94121,1.84863l-0.48735,0.51123c-0.80801,-0.38086 -1.54189,-1.06934 -2.10396,-1.75488c0.41587,0.16406 1.11006,0.65332 1.42822,0.64014c-0.32549,-0.41309 -0.6457,-0.72803 -0.77813,-1.24512z" fill="#8497ab"/><path d="M123.97925,51.17959l0.45322,0.40518c0.36343,-0.22661 0.3813,-0.25239 0.81211,-0.13198l-11.89424,11.93833c-1.56152,1.5624 -5.00537,4.82988 -6.2833,6.38979l0.01172,10.84717c0.00146,1.57778 0.07837,4.12676 -0.01567,5.64331c0.29648,5.28179 -0.15117,14.45464 -0.00366,20.00581c-0.07178,0.09932 -0.1437,0.19863 -0.21548,0.29795c-0.4062,0.04292 -0.49995,0.11074 -0.84009,-0.07705c-0.18589,-0.75703 -0.09756,-6.39668 -0.09771,-7.50264l0.00981,-19.17554c0.00615,-2.527 -0.20215,-8.39707 0.04541,-10.48389c5.94434,-6.11294 11.95063,-12.16553 18.01787,-18.15645z" fill="#cadce7"/><path d="M105.96138,69.33604c0.42773,10.29712 -0.11426,20.89482 0.06782,31.22124c0.01685,0.95962 -0.28154,3.76421 0.52837,4.39307c0.83452,-0.97383 0.2231,-16.18096 0.50552,-18.67896c0.29648,5.28179 -0.15117,14.45464 -0.00366,20.00581c-0.07178,0.09932 -0.1437,0.19863 -0.21548,0.29795c-0.4062,0.04292 -0.49995,0.11074 -0.84009,-0.07705c-0.18589,-0.75703 -0.09756,-6.39668 -0.09771,-7.50264l0.00981,-19.17554c0.00615,-2.527 -0.20215,-8.39707 0.04541,-10.48389z" fill="#8497ab"/><path d="M175.5,52.11357c0.06299,-0.36094 0.02637,-0.2332 0.21387,-0.5603c0.39111,0.05435 0.53027,0.1377 0.89355,0.28916c1.99512,1.72207 4.81348,4.6957 6.77051,6.65874c3.57129,3.57378 7.12354,7.16719 10.65527,10.78008c0.16699,1.52007 0.07031,5.14307 0.06885,6.78237l-0.01465,12.84976l0.01025,10.93652c0.00732,1.77935 0.11133,4.96802 -0.11279,6.60498c-0.35742,0.25811 -0.15234,0.17227 -0.67969,0.13169c-0.43066,-0.59795 -0.28125,-1.46016 -0.25195,-2.24385l0.00586,-34.49048c-1.9585,-2.26362 -4.82373,-4.99731 -6.97119,-7.1502c-3.50684,-3.55078 -7.03711,-7.08032 -10.58789,-10.58848z" fill="url(#color-7)"/><path d="M194.0332,69.28125c0.16699,1.52007 0.07031,5.14307 0.06885,6.78237l-0.01465,12.84976l0.01025,10.93652c0.00732,1.77935 0.11133,4.96802 -0.11279,6.60498c-0.35742,0.25811 -0.15234,0.17227 -0.67969,0.13169c-0.43066,-0.59795 -0.28125,-1.46016 -0.25195,-2.24385c0.31201,0.06079 0.41748,0.06519 0.73828,0.07808c0.46143,-0.9252 -0.03223,-31.12397 0.2417,-35.13955z" fill="#5d748f"/><path d="M123.97925,51.17959c1.77334,-1.49077 4.47144,-4.30913 6.60659,-5.04536c0.71191,-0.24536 35.12607,-0.38979 38.11875,-0.14751c0.33105,0.02666 0.70605,0.04058 1.00781,0.18647c1.81201,0.87524 5.57959,4.13379 6.89502,5.66924c-0.36328,-0.15146 -0.50244,-0.23481 -0.89355,-0.28916c-0.1875,0.3271 -0.15088,0.19937 -0.21387,0.5603c-1.00928,-1.08135 -4.95703,-4.16309 -6.27832,-5.23945c-4.69922,-0.10986 -9.89795,-0.0041 -14.625,-0.00088l-23.60347,0.02183c-1.98867,1.40581 -4.15166,3.49966 -5.74863,4.55771c-0.43081,-0.12041 -0.44868,-0.09463 -0.81211,0.13198z" fill="url(#color-8)"/><path d="M209.68652,235.08838l0.50537,0.20947c-0.67822,0.95215 -1.71533,8.96484 -2.5752,10.69922c-0.19336,-0.61963 1.79443,-9.49219 2.06982,-10.90869z" fill="#5d748f"/><path d="M101.09092,208.36963c2.07041,-0.03809 4.14097,-0.05127 6.21167,-0.04102c0.87129,0 2.70132,-0.05127 3.49702,0.04834l0.00264,0.1875c-1.02891,0.27246 -8.55923,0.28418 -9.59282,0.07031z" fill="#213447"/><path d="M80.87285,215.39355c0.12158,0.54785 0.05581,0.78516 0.49922,1.01807c1.5063,0.79102 3.28345,-0.46436 4.55625,0.38232l0.05947,0.16553c-0.5417,0.18164 -3.97866,-0.08203 -4.90972,-0.1084c0.00645,0.83203 0.07383,1.45459 -0.19775,2.23828c-0.04907,-1.16895 -0.01216,-2.51367 -0.00747,-3.6958z" fill="#213447"/><path d="M202.89404,204.07031c0.9917,-1.26855 3.24316,-3.646 4.41943,-4.81055c0.03223,0.27246 0.03955,0.54053 0.1333,0.78955c-0.58447,0.65479 -3.82031,3.46875 -4.55273,4.021z" fill="#213447"/><path d="M92.93511,199.43994c1.23325,1.35791 2.85293,3.04395 3.98262,4.45166c-1.0752,-0.68701 -3.42642,-2.96484 -4.46997,-3.94043z" fill="#213447"/><path d="M214.13086,215.78027c0.1084,0.08057 0.04541,0.01904 0.12158,0.2373c-0.63867,0.47021 -1.4707,0.71191 -2.23975,1.18213l0.0293,0.15088c0.58008,-0.01904 2.23242,-0.12744 2.67334,0.12012l-0.14209,0.19922c-1.01367,0.06152 -2.10937,0.23877 -3.01465,-0.19043l-0.02197,-0.23145c0.66064,-0.70312 1.69043,-1.05908 2.59424,-1.46777z" fill="#213447"/><path d="M207.31348,199.25977l1.29346,-1.34326c0.10254,0.41016 0.12598,0.6416 0.32227,1.01221l-0.36035,0.33838c-0.46289,0.27686 -0.72217,0.40723 -1.12207,0.78223c-0.09375,-0.24902 -0.10107,-0.51709 -0.1333,-0.78955z" fill="#8497ab"/><path d="M217.75781,213.99463l0.271,0.0791c-0.20215,0.35596 -0.90088,0.61963 -1.3125,0.82178l-0.2168,-0.09082c0.1626,-0.3208 0.86719,-0.60205 1.2583,-0.81006z" fill="#213447"/><path d="M84.43623,7.00255c0.40605,0.42108 0.27832,3.79066 0.31655,4.67276c4.21436,-0.10126 8.7791,0.01541 13.04224,0.01106l30.26367,0.01178l19.91982,-0.00041c1.48389,-0.00791 11.46094,-0.18289 12.01758,0.09292c-0.3501,0.16849 -10.29785,0.11952 -11.71729,0.14928c-3.14106,-0.07472 -6.32197,0.0108 -9.47095,-0.00943l-34.50645,-0.00608l-13.55859,-0.02692c-0.86953,-0.00375 -5.29395,-0.07493 -5.90859,0.03863l-0.19951,0.38917l-0.19263,0.05739l-0.21562,-0.43808c-1.33447,-0.2823 -2.92954,-0.01915 -4.19971,0.03072c-1.21348,0.04764 -3.78867,0.0137 -4.9481,-0.16789c0.95684,-0.19986 8.15654,-0.23763 9.27715,-0.06334c-0.00718,-1.33374 -0.08145,-3.4795 0.08042,-4.74155z" fill="#cadce7"/><path d="M206.30713,287.18408c1.38574,-0.2124 6.98291,-0.10107 8.60156,-0.10107l18.26221,0.00293l32.29834,0.00146l10.50293,-0.00146c2.18701,-0.00146 4.15137,-0.07617 6.34277,0.07031l0.0791,0.14795l-0.23877,0.03369l-56.4082,0.00146l-12.8335,0.01172c-1.71387,-0.00146 -5.0127,0.0791 -6.60645,-0.16699z" fill="#cadce7"/><path d="M18.74868,287.18848c0.12349,-0.04687 71.32471,-0.37207 74.03276,0.01611c-0.35771,0.18164 -0.68628,0.14355 -1.11753,0.16992c-2.36602,0.10254 -5.63979,-0.0249 -8.1189,-0.0249l-17.13076,-0.02197l-36.77871,0.00293c-1.15767,-0.00439 -10.53164,0.06445 -10.88687,-0.14209z" fill="#cadce7"/><path d="M206.68652,11.41446c-0.44678,-0.03403 1.13672,0.30359 0.90527,0.25458c1.3667,0.2891 7.93066,-0.26052 8.77441,0.04898l-0.00732,0.22878l-0.15967,0.09757c-0.50977,-0.22167 -3.82031,-0.11813 -4.56006,-0.11978l-8.01855,-0.00639l-23.84912,-0.01446c-0.84521,0.16752 -9.5332,0.07044 -10.43262,-0.10689c2.23975,-0.26965 7.11475,-0.09133 9.52441,-0.10102l20.98828,-0.01891c1.82666,0.00609 4.55273,0.04753 6.46289,-0.02307c0.12451,-0.07979 0.24902,-0.15959 0.37207,-0.2394z" fill="#cadce7"/><path d="M53.51147,21.54888c0.73608,-0.0271 1.35923,-0.1563 2.01475,0.29312c1.14243,0.7834 0.89722,2.94126 0.09023,3.89531c-0.7144,0.15498 -1.39116,0.14165 -2.12271,0.1626c0.04248,-1.4499 0.04849,-2.90068 0.01772,-4.35103z" fill="#0894eb"/><path d="M54.06138,21.946c2.14102,0.03354 1.81055,1.72485 1.41152,3.31245c-0.6542,0.14341 -0.82646,0.23774 -1.30723,-0.18384c-0.28623,-0.85386 -0.12612,-2.14468 -0.1043,-3.12861z" fill="#f7f8f8"/><path d="M272.47119,21.5313c0.46143,-0.01611 1.0708,-0.08481 1.41211,0.22954c1.16895,1.07886 0.86426,3.09976 -0.09961,4.11343l-0.17871,0.00879c-2.4668,0.09639 -2.36719,-3.15322 -1.13379,-4.35176z" fill="#0894eb"/><path d="M272.5166,21.95376c2.05371,-0.11968 1.63623,2.10571 1.19092,3.45483c-1.92627,0.01582 -1.62598,-2.15991 -1.19092,-3.45483z" fill="#f7f8f8"/><path d="M279.72217,21.53291l0.21533,0.00308c0.27832,0.00132 1.04443,-0.02095 1.28906,0.06299c1.66406,0.57012 1.2583,2.72666 0.82031,3.89561c-0.65625,0.36211 -1.27441,0.59165 -1.98193,0.28594c-0.59033,-0.84683 -0.33105,-3.01772 -0.34277,-4.24761z" fill="#0894eb"/><path d="M280.2583,21.97324c0.77344,0.03662 0.6665,-0.07954 1.24072,0.27642c0.57422,0.90073 0.271,1.90898 0.13477,3.01289c-0.63281,0.11089 -0.81738,0.21196 -1.27734,-0.19614c-0.28418,-0.8209 -0.11865,-2.13091 -0.09814,-3.09316z" fill="#f7f8f8"/><path d="M18.72524,260.5957c2.3436,0.35889 2.24326,3.19043 0.86426,4.41943c-2.00845,0.07617 -2.23125,-1.35937 -1.91675,-3.04834c0.14561,-0.78076 0.37705,-0.97705 1.05249,-1.37109z" fill="#0894eb"/><path d="M18.54346,261.09082c0.21709,0.01025 0.50493,0.05273 0.72729,0.0791c1.01455,0.64893 0.68291,2.4873 0.26191,3.42041l-0.64922,-0.0293c-1.04414,-0.63281 -0.81519,-2.54883 -0.33999,-3.47021z" fill="#f7f8f8"/><path d="M277.12061,268.06934c2.57227,0.04688 2.34668,3.34131 1.00195,4.43994c-2.57373,-0.03223 -2.42432,-3.12158 -1.00195,-4.43994z" fill="#0894eb"/><path d="M277.44727,268.42529c0.16992,0.06445 0.43213,0.20215 0.60352,0.28564c0.65332,0.83496 0.52002,2.52686 -0.12451,3.35889c-0.4248,-0.07471 -0.40137,-0.07324 -0.77783,-0.29004c-0.66357,-0.91846 -0.55664,-2.56055 0.29883,-3.35449z" fill="#f7f8f8"/><path d="M256.89258,21.51724c0.44092,-0.00923 1.05762,-0.07588 1.39893,0.24082c1.08838,1.01221 0.8584,3.09668 -0.14355,4.08633c-0.41162,0.00952 -1.01514,0.06562 -1.3125,-0.19731c-1.18359,-1.04429 -0.87744,-3.16011 0.05713,-4.12983z" fill="#0894eb"/><path d="M257.00244,21.94043c1.92188,0.0189 1.46045,2.08828 1.13525,3.42744l-0.77637,-0.02358c-1.03857,-0.65361 -0.80566,-2.45024 -0.35889,-3.40386z" fill="#f7f8f8"/><path d="M183.0542,284.97656c0.08936,0.07031 0.2168,0.22559 0.29883,0.31641c0.02344,0.41602 -0.00439,0.74414 0.20215,1.0957c0.8584,0.23291 9.66504,0.14941 11.11084,0.11426c1.86621,-0.04541 6.41309,0.0791 8.18555,-0.02783c0.5874,-0.375 -0.01465,-0.49658 0.4585,-1.38281l0.19189,0.10254c0.15967,0.88184 0.07471,1.97607 0.04395,2.89746l-0.19775,-0.03516c-0.45996,-0.54346 0.0498,-0.55957 -0.35449,-1.14404c-0.13037,-0.01904 -0.26074,-0.03516 -0.39111,-0.04834c-1.77246,-0.18164 -18.84521,-0.07764 -19.14404,0.16553c-0.03223,0.4043 -0.01172,0.69727 -0.22266,1.04004l-0.1626,-0.08057c-0.2373,-0.78223 -0.13623,-2.20898 -0.01904,-3.01318z" fill="#d91a1b"/><path d="M96.32212,284.97363c0.48354,0.49072 0.16436,0.5874 0.47651,1.4751c3.26089,0.2373 7.89199,-0.01465 11.26289,0.06006c1.58013,0.03516 6.9958,0.07324 8.2856,-0.08936c0.04819,-0.41309 0.10679,-0.82324 0.17563,-1.2334l0.20742,-0.07324c0.27891,0.479 0.13125,2.3833 0.10166,3.02051c-0.69185,-0.22705 -0.09858,-0.62842 -0.57173,-1.24072c-1.28101,-0.16846 -5.0458,-0.07031 -6.56616,-0.06885l-12.82852,0.02344c-0.32358,0.23145 -0.14326,0.53027 -0.3271,1.20703l-0.20889,-0.02783c-0.21885,-0.75 -0.12451,-2.26904 -0.00732,-3.05273z" fill="#d91a1b"/><path d="M289.979,167.3584l0.14502,0.15674c0.14795,1.46338 0.07031,4.7168 0.07031,6.28564l0.00146,12.23438l-0.00586,19.50439c0,0.93604 0.06738,6.99756 -0.08496,7.56592l-0.08936,-0.23437l-0.01611,-31.94971l0.01904,-8.97949c0.00439,-1.06641 0.0791,-3.62109 -0.03955,-4.5835z" fill="#cadce7"/><path d="M33.39478,29.0124c0.88755,-0.03164 2.04785,-0.1708 2.60684,0.66357c0.10605,0.71572 -0.36123,1.29038 -0.48325,1.86812c-0.0627,0.29648 0.58945,1.26123 0.46465,1.82314l-0.22808,0.02124l-0.27202,-0.34482l-0.23584,-0.44751c-0.26162,-0.50068 -0.32432,-0.75117 -0.78252,-1.09014c-0.31201,0.22603 -0.39961,1.18667 -0.63457,1.78008l-0.29443,0.05317c-0.25503,-0.42642 -0.14297,-3.59136 -0.14077,-4.32686z" fill="#0894eb"/><path d="M34.00693,29.43867c0.60732,0.03618 0.90542,-0.02593 1.37329,0.35259c0.23745,0.50259 0.18105,0.6167 0.10518,1.16133c-0.50522,0.06855 -0.82061,0.16553 -1.2936,-0.01494c-0.28975,-0.40225 -0.19775,-0.97339 -0.18486,-1.49897z" fill="#f7f8f8"/><path d="M252.36621,21.5272c0.96094,-0.01333 1.72412,-0.07339 2.54736,0.48691c0.48926,1.05293 -0.5376,1.29697 -0.53027,2.08755c0.00146,0.20288 0.69873,1.13335 0.65479,1.73848c-0.33984,0.08335 -0.16699,0.09038 -0.51855,-0.11221c-0.27539,-0.55137 -0.62109,-1.40742 -1.14258,-1.65981c-0.49512,0.50215 -0.33691,1.4814 -0.79834,1.86636c-0.32666,-0.52661 -0.2124,-3.53555 -0.2124,-4.40728z" fill="#0894eb"/><path d="M252.89209,21.9854c0.71484,-0.00762 0.99023,-0.06885 1.52637,0.346c0.1377,0.48926 0.06592,0.59619 -0.07764,1.07813c-0.48633,0.0958 -0.82178,0.23071 -1.2583,0.03442c-0.27246,-0.38511 -0.19482,-0.95684 -0.19043,-1.45854z" fill="#f7f8f8"/><path d="M263.94434,29.02222c0.89063,0 1.90137,-0.13052 2.521,0.62373c0.60059,0.72905 -0.14941,1.49956 -0.65039,1.9021c0.31348,0.53789 0.70166,1.14624 0.79248,1.75386l-0.21387,0.13022l-0.31494,-0.22646c-0.25488,-0.62344 -0.42773,-1.33872 -1.10303,-1.56006c-0.58301,0.43374 -0.3208,1.37109 -0.82764,1.66685c-0.26221,-0.34731 -0.19629,-3.5811 -0.20361,-4.29023z" fill="#0894eb"/><path d="M264.52441,29.45596c0.65771,0.01113 0.9873,-0.04614 1.46191,0.41309c0.18164,0.50215 0.12012,0.55986 0.00732,1.08032c-0.48047,0.07236 -0.90234,0.21328 -1.30371,-0.00557c-0.27539,-0.4144 -0.18311,-0.96519 -0.16553,-1.48784z" fill="#f7f8f8"/><path d="M25.95557,21.53613c1.01074,-0.00732 1.82856,-0.11455 2.62163,0.52734c0.38452,1.04487 -0.74385,1.41094 -0.59531,2.18584c0.05229,0.27261 0.77856,0.96284 0.65889,1.59829c-0.3854,-0.01011 -0.21416,0.04922 -0.50083,-0.23965c-0.29956,-0.59736 -0.58799,-1.25435 -1.12705,-1.64121c-0.35273,0.2918 -0.47651,1.18623 -0.62241,1.73276l-0.29238,0.10181c-0.25356,-0.40063 -0.14224,-3.5332 -0.14253,-4.26519z" fill="#0894eb"/><path d="M26.52114,21.97427c0.5499,0.01245 1.03784,-0.03384 1.45049,0.30029c0.20288,0.61831 0.11777,0.49614 -0.01729,1.22622c-0.47183,0.05479 -0.82939,0.15469 -1.25479,-0.02886c-0.30088,-0.40825 -0.19878,-0.96196 -0.17842,-1.49766z" fill="#f7f8f8"/><path d="M54.57422,260.71875c0.85972,-0.02197 2.02148,-0.16113 2.5519,0.66064c0.03501,0.28711 0.0019,0.73828 -0.17563,0.95508c-0.90776,1.10889 0.30059,1.84717 0.13843,2.67627c-0.38672,0.01904 -0.2001,0.06299 -0.54434,-0.23437c-0.43594,-0.94775 -0.66841,-1.38574 -1.22549,-2.26611c-0.23716,0.93604 -0.02578,1.72998 -0.64468,2.58398c-0.13887,-0.54932 -0.09932,-3.61963 -0.1002,-4.37549z" fill="#0894eb"/><path d="M55.10508,261.14795c0.54053,-0.01758 0.82983,-0.08936 1.27954,0.20068c0.29736,0.41309 0.23262,0.646 0.22002,1.16162c-0.5833,0.19922 -0.82368,0.28271 -1.33564,0.0791c-0.26147,-0.40869 -0.1771,-0.93311 -0.16392,-1.44141z" fill="#f7f8f8"/><path d="M239.06689,268.13525c0.97998,-0.0249 1.45898,-0.104 2.28955,0.375c0.62988,0.92139 -0.32666,1.34766 -0.32666,2.20898c0,-0.12744 0.52441,1.40771 0.57861,1.63477l-0.17285,0.14502l-0.41162,-0.22852c-0.22412,-0.55811 -0.37354,-0.84668 -0.66797,-1.37256l0.01172,0.05713l-0.32227,-0.35156c-0.38086,0.32813 -0.2124,1.0415 -0.63135,1.78271l-0.2666,0.0498c-0.22705,-0.42627 -0.09082,-3.59033 -0.08057,-4.30078z" fill="#0894eb"/><path d="M239.86816,268.53516c0.63574,0.03809 0.75146,0.08057 1.11475,0.48047c0.11719,0.5127 -0.01172,0.6958 -0.20361,1.18945c-0.45557,-0.00879 -0.50684,0.01318 -0.95068,-0.13184c-0.54639,-0.59766 -0.57129,-0.98584 0.03955,-1.53809z" fill="#f7f8f8"/><path d="M70.16001,268.08105c4.22886,-0.11279 1.50527,1.41504 2.31621,3.52588c0.13872,0.36035 0.20479,0.26367 0.24287,0.73975l-0.19233,0.09375l-0.34424,-0.19043c-0.24097,-0.62842 -0.37573,-1.2627 -1.02451,-1.52783c-0.45425,0.4292 -0.36401,0.92432 -0.7084,1.68018l-0.20962,-0.03809c-0.12202,-0.62402 -0.07822,-3.48633 -0.07998,-4.2832z" fill="#0894eb"/><path d="M70.72954,268.48828c0.55093,0.04541 0.7894,0.01465 1.24497,0.32813c0.26499,0.44678 0.18545,0.6958 0.14312,1.21729c-0.65215,0.07324 -0.7645,0.19629 -1.27339,-0.02783c-0.24478,-0.42187 -0.14253,-1.00342 -0.1147,-1.51758z" fill="#f7f8f8"/><path d="M45.81343,21.53804c1.16396,-0.04336 2.49976,-0.14194 2.78306,1.33784c-0.2313,1.14932 -1.16455,1.19561 -2.13003,1.19604c-0.16377,0.49819 0.03091,1.0147 -0.21738,1.68135l-0.23057,0.10195l-0.2061,-0.14443c-0.06079,-1.25728 -0.00571,-2.88823 0.00103,-4.17275z" fill="#0894eb"/><path d="M46.34766,21.9835c0.57114,-0.01099 0.98071,-0.07471 1.41694,0.26411c0.23833,0.48589 0.12729,0.75103 0.0334,1.29111c-0.51987,0.04717 -0.74736,0.11162 -1.23926,-0.07236c-0.30396,-0.39668 -0.21753,-0.95405 -0.21108,-1.48286z" fill="#f7f8f8"/><path d="M57.47007,271.49268c-0.01553,-0.62402 -0.22617,-2.82275 0.27656,-3.14795c0.43491,0.87158 0.43286,3.38672 0.09565,4.28467c-0.22793,-0.08643 -0.34336,-0.15381 -0.55957,-0.26514c-0.59678,-0.89502 -1.08633,-2.68066 -1.41548,-3.73535c-0.01362,1.04297 0.27144,3.23145 -0.28638,3.84375c-0.44575,-0.39111 -0.26748,-3.43945 -0.3356,-4.46484l0.58403,0.05566c0.69858,0.37646 1.13862,2.32617 1.56445,3.26367z" fill="#0894eb"/><path d="M17.75142,268.08545c1.2252,-0.01318 2.53579,-0.06006 2.6811,1.53955c-0.34556,1.13232 -1.09907,1.08984 -2.10015,1.07959c0.00645,0.55811 0.01963,0.76904 -0.07734,1.3125l-0.19585,0.19336l0.06812,0.25342l0.04717,-0.15674l-0.10928,0.07764l-0.06108,-0.05127c-0.24126,-1.42236 -0.22544,-2.80664 -0.25269,-4.24805z" fill="#0894eb"/><path d="M18.34497,268.54395c0.70898,0.01318 0.92959,-0.00439 1.41226,0.39258c0.15557,0.48486 0.0375,0.74561 -0.08101,1.24512c-0.47578,0.03223 -0.76582,0.10254 -1.19106,-0.10693c-0.27891,-0.4043 -0.16743,-1.00635 -0.14019,-1.53076z" fill="#f7f8f8"/><path d="M11.05072,10.65879c0.09237,0.14824 0.23386,0.55956 0.30407,0.74348c0.79957,0.45318 5.28319,-0.04324 6.76854,0.29883c-1.65249,0.81097 -5.69965,-0.19261 -6.75464,0.51457l-0.05801,0.49188c0.00864,1.00749 0.0744,5.68107 -0.14846,6.28093c-0.71285,-0.60454 -0.08503,-5.51965 -0.37553,-6.84223l-0.55833,-0.19392c0.15242,-0.76526 0.29002,0.04189 0.82235,-1.29354z" fill="#0894eb"/><path d="M288.70313,11.44336c0.64893,0.09261 0.94482,0.14317 1.59229,0.13163c0.00879,1.11595 0.12598,6.82872 -0.16553,7.42184c-0.46436,-0.73887 -0.30762,-5.18446 -0.3252,-6.43081c-0.67236,-0.96729 -5.87402,-0.32124 -7.07812,-0.71774c0.87158,-0.49689 4.50146,-0.25617 5.97656,-0.40491z" fill="#0894eb"/><path d="M41.91182,21.53335c1.10713,-0.04175 2.53872,-0.11704 2.75801,1.34795c-0.26631,1.15752 -1.1562,1.18623 -2.15449,1.18433c-0.13989,0.55796 0.09009,1.25859 -0.31025,1.69512c-0.41074,-0.65112 -0.29194,-3.30937 -0.29326,-4.22739z" fill="#0894eb"/><path d="M42.47578,21.97441c0.5644,0.01084 0.9394,-0.06064 1.36084,0.28608c0.21797,0.46978 0.1084,0.75337 0.02212,1.27046c-0.50786,0.05083 -0.77212,0.12891 -1.23809,-0.07617c-0.26074,-0.39331 -0.16421,-0.9772 -0.14487,-1.48037z" fill="#f7f8f8"/><path d="M35.95562,260.60889c0.14297,0.01904 0.32007,0.03809 0.45688,0.07764c0.72217,0.20654 1.42573,2.79053 1.679,3.53027c-0.0085,-0.78662 -0.09316,-2.82568 0.14077,-3.49951l0.2042,0.02051c0.40986,0.60352 0.30161,3.72363 0.08438,4.43408c-1.1272,-0.34863 -1.60254,-2.7085 -2.02251,-3.87451c-0.01172,1.01367 0.23481,3.09521 -0.28755,3.71777l-0.19277,-0.09229c-0.10723,-0.74414 -0.04878,-3.40137 -0.0624,-4.31396z" fill="#0894eb"/><path d="M41.91401,28.96143c0.22969,0.0249 0.55547,0.01304 0.68657,0.13638c0.52837,0.49644 1.13833,3.57334 1.15957,4.20601l-0.17769,0.11455l-0.27334,-0.20581c-0.12319,-0.38789 -0.22588,-0.68745 -0.41748,-1.05059c-0.48765,-0.00059 -0.80918,-0.04453 -1.25669,0.14927c-0.10723,0.31758 -0.21196,0.63589 -0.31436,0.95508l-0.30732,0.11426l-0.18721,-0.12568c-0.01509,-0.29033 0.95288,-3.78164 1.08794,-4.29346z" fill="#0894eb"/><path d="M42.27056,29.69604c0.36987,0.37939 0.65815,1.64033 0.39873,2.16255c-0.39902,-0.05566 -0.41514,-0.0293 -0.75337,-0.23188c-0.16362,-0.52866 0.1856,-1.32817 0.35464,-1.93066z" fill="#f7f8f8"/><path d="M18.98848,21.47139c0.19937,0.03721 0.42319,0.09492 0.623,0.1415c0.62227,0.77197 1.12969,3.08232 1.26006,4.0793l-0.23086,0.12627c-0.59355,-0.36738 -0.04175,-0.6293 -0.74487,-1.17656l-1.08047,0.0394c-0.26792,0.40356 -0.34233,0.6356 -0.51855,1.07739l-0.26602,0.11191l-0.15513,-0.16348c0.00513,-0.50859 0.91011,-3.49277 1.11284,-4.23574z" fill="#0894eb"/><path d="M19.36479,22.06846c0.24126,0.50156 0.48604,1.42617 0.46055,1.99248l-0.35156,0.31436l-0.52764,-0.27422c-0.15645,-0.55474 0.22383,-1.44521 0.41865,-2.03262z" fill="#f7f8f8"/><path d="M272.56201,28.90986c0.27686,0.06753 0.42188,0.05566 0.61377,0.21753c0.45557,0.38496 1.22314,3.69902 1.21436,4.14082l-0.22852,0.09038l-0.25488,-0.24653c-0.07617,-0.37017 -0.10693,-0.59238 -0.30469,-0.92212c-1.29785,-0.01348 -1.00049,0.03618 -2.07861,1.07212c-0.1582,-0.31377 0.86865,-3.73989 1.03857,-4.3522z" fill="#0894eb"/><path d="M272.86523,29.68579c0.4292,0.44063 0.75293,1.62202 0.38232,2.18877c-0.3457,-0.06519 -0.38379,-0.0769 -0.70898,-0.20962c-0.22852,-0.65347 0.09668,-1.25669 0.32666,-1.97915z" fill="#f7f8f8"/><path d="M235.51611,260.62646c0.17725,0.01465 0.6665,0.03955 0.73389,0.14648c0.37354,0.59473 1.01221,3.52002 1.13232,4.07959l-0.29443,0.11133l-0.22705,-0.19775c-0.09082,-0.33691 -0.18457,-0.65186 -0.33105,-0.96973c-0.40869,0.01025 -0.57861,0.02344 -0.98291,0.0835c-0.33252,0.38965 -0.58594,0.64453 -0.95215,1.00342l-0.08789,-0.09814c0.23145,-1.396 0.68262,-2.74219 1.00928,-4.15869z" fill="#0894eb"/><path d="M235.85889,261.41602c0.41309,0.43213 0.48047,1.21875 0.53467,1.79736l-0.2666,0.30176c-0.44092,-0.10693 -0.30322,-0.01318 -0.61084,-0.2915c-0.13037,-0.60205 0.14795,-1.19092 0.34277,-1.80762z" fill="#f7f8f8"/><path d="M41.14614,268.02246l0.5978,0.08057c0.4752,0.45703 1.44902,3.6416 0.97046,4.14844c-0.36577,-0.25342 -0.41426,-0.63867 -0.55737,-1.08545c-1.2501,0.06885 -0.95903,0.11719 -1.96963,1.22754l-0.11455,-0.11572c0.37163,-1.41504 0.72935,-2.83301 1.07329,-4.25537z" fill="#0894eb"/><path d="M289.86621,286.97168c-0.01904,-2.01709 -0.07324,-4.04736 0.08203,-6.05713l0.104,-0.03223c0.40869,1.4502 0.25635,4.72266 0.34277,6.52002l-0.24609,0.42773l-0.09814,-0.01465c-0.98291,-0.67822 -5.25879,-0.17139 -6.9917,-0.45117l0.06738,-0.13916c1.31104,-0.40869 5.11523,-0.22119 6.73975,-0.25342z" fill="#0894eb"/><path d="M38.73091,21.47534l0.58359,0.08862c0.59062,0.59546 1.05293,3.13169 1.26401,4.06655l-0.15073,0.18486c-0.71499,-0.31846 -0.05918,-0.5313 -0.89766,-1.2356c-0.4355,0.02007 -0.48384,0.00688 -0.89429,0.13096c-0.4002,0.58447 -0.46538,0.67017 -1.02437,1.10083l-0.07793,-0.16787c0.51606,-1.30986 0.84888,-2.79521 1.19736,-4.16836z" fill="#0894eb"/><path d="M258.58447,260.63232l0.60059,0.104c0.55664,0.55518 1.3418,3.43652 0.99463,4.06934c-0.38818,-0.21826 -0.35303,-0.46436 -0.55518,-1.0166c-1.99219,0.04688 -1.24072,0.97412 -2.03027,1.05469c0.15527,-1.13525 0.69873,-3.03955 0.99023,-4.21143z" fill="#0894eb"/><path d="M258.92139,261.43506c0.375,0.42188 0.70605,1.50586 0.40576,2.04346c-0.36035,-0.06299 -0.375,-0.06885 -0.71191,-0.21387c-0.17578,-0.59766 0.10986,-1.14404 0.30615,-1.82959z" fill="#f7f8f8"/><path d="M250.77539,260.62207l0.58447,0.0791c0.55078,0.50244 1.39307,3.54199 1.01953,4.15137c-0.41309,-0.30322 -0.31934,-0.4043 -0.50684,-1.03271c-0.43799,-0.00586 -1.05322,-0.0791 -1.3916,0.1377c-0.08936,0.44971 -0.08057,0.54639 -0.30029,0.95654l-0.29004,0.08057l-0.1377,-0.21973c0.14941,-0.94336 0.77051,-3.06592 1.02246,-4.15283z" fill="#0894eb"/><path d="M251.09619,261.54932c0.46729,0.40869 0.71924,1.4165 0.27393,1.96875l-0.53906,-0.21533c-0.2124,-0.57715 0.06592,-1.11475 0.26514,-1.75342z" fill="#f7f8f8"/><path d="M270.07031,260.62793l0.61523,0.09668c0.5376,0.6167 1.20703,3.21973 1.27441,4.10742l-0.2417,0.14502c-0.46582,-0.23145 -0.30176,-0.60937 -0.61523,-1.17041c-0.42187,0.00732 -0.79834,0.0293 -1.21582,0.05713c-0.1875,0.58301 -0.20508,0.66211 -0.52588,1.16895l-0.21973,-0.00586c-0.16113,-0.28711 0.78516,-3.65039 0.92871,-4.39893z" fill="#0894eb"/><path d="M10.94136,280.73584c0.6024,0.48633 0.3408,5.2793 0.33151,6.2373c0.83672,0.00879 6.05609,-0.03809 6.53465,0.11572l0.03647,0.21973l-0.30073,0.16846c-1.40391,-0.00732 -5.60525,0.16553 -6.7438,-0.09961c-0.03699,-0.10254 0.09513,-6.37354 0.1419,-6.6416z" fill="#0894eb"/><path d="M137.96338,283.90137c3.20566,-0.10254 1.4373,1.05762 1.83091,2.81396c0.00059,0.00293 0.32681,0.64014 0.35317,0.69287l-0.08613,0.17871l-0.35303,-0.09229c-0.24302,-0.52881 -0.44941,-1.125 -0.96079,-1.3418c-0.51841,0.54639 -0.17212,1.13525 -0.60278,1.42383c-0.32212,-0.7749 -0.19893,-2.7334 -0.18135,-3.67529z" fill="#d91a1b"/><path d="M138.43022,284.22803c0.49585,0.06299 0.54785,0.03809 0.99565,0.28271c0.26924,0.41895 0.18926,0.64746 0.14399,1.1499c-0.41646,0.00439 -0.51475,0.00146 -0.9249,-0.06152c-0.33853,-0.44385 -0.21562,-0.70752 -0.21475,-1.37109z" fill="#f7f8f8"/><path d="M245.97363,260.61621c1.29492,0.41455 0.03516,0.89355 0.72803,1.92041c1.66699,0.19922 1.03711,-0.96094 1.67432,-1.78271c0.45264,0.65918 0.25049,3.4834 0.13037,4.34766c-0.59033,-0.40576 -0.39697,-1.11328 -0.47607,-1.8457c-0.39111,-0.33691 -0.82764,-0.34424 -1.27734,-0.17432c-0.37646,0.58447 -0.03223,1.09131 -0.37646,1.9292l-0.19775,-0.04102c-0.30908,-0.54932 -0.19775,-3.46875 -0.20508,-4.35352z" fill="#0894eb"/><path d="M21.51504,267.95508l0.43652,0.21533c0.34248,0.70459 -0.13652,0.80273 0.07148,1.55273c0.34497,0.34277 0.3479,0.40283 0.82661,0.51563c0.94673,-0.43506 0.51196,-1.27441 1.04253,-2.09619c0.32944,0.48193 0.31626,3.84082 0.06548,4.45166c-0.80215,-0.74121 -0.13271,-1.02539 -0.47109,-1.93652c-0.55137,-0.30322 -0.75454,-0.19482 -1.44141,-0.19043c0.02358,0.66064 0.11089,1.45898 -0.27642,2.00098c-0.46743,-1.02686 -0.35493,-3.37207 -0.25371,-4.51318z" fill="#0894eb"/><path d="M258.77051,268.07373c0.83203,0.00732 1.01953,0.09375 1.67578,0.62842l-0.01172,0.27832l-0.26514,0.19043c-0.53027,-0.32959 -0.86719,-0.65918 -1.47217,-0.46289c-0.43652,0.61816 -0.44971,2.38184 -0.11572,3.03662c0.49658,0.30615 0.22852,0.23584 0.84375,0.17285c0.51123,-0.35889 0.3457,-0.13037 0.5625,-0.6709c-0.15088,-0.68848 0.01758,-0.41455 -0.50537,-0.86133l-0.27979,-0.00146l-0.00586,-0.20068c0.45557,-0.2168 0.43359,-0.19189 0.94629,-0.19922c1.03271,0.65186 0.10693,2.5752 -0.88037,2.51074c-2.02734,-0.13477 -1.93799,-3.44385 -0.49219,-4.4209z" fill="#0894eb"/><path d="M244.43848,260.5459l0.22705,0.27246c-0.19629,0.62256 -0.71631,1.18213 -1.13086,1.71387c0.32666,0.58594 1.24072,1.8999 1.37842,2.37451l-0.29004,0.104c-0.68848,-0.21826 -0.6123,-1.07227 -1.45752,-1.78418l-0.22412,0.06006l-0.16699,0.40137c-0.00586,0.43506 0.06445,1.03711 -0.26807,1.31543l-0.22266,-0.10107c-0.37061,-1.03125 -0.16992,-2.9751 0.13916,-4.02393l0.15674,-0.07764c0.24463,0.83643 0.18457,1.28906 0.16846,2.15186c0.56396,-0.87891 1.00635,-1.61426 1.69043,-2.40674z" fill="#0894eb"/><path d="M67.28481,268.07227c0.85444,0.0293 1.05088,0.05127 1.5375,0.76318l-0.05186,0.23584l-0.28989,0.05273c-0.44048,-0.271 -0.79526,-0.58301 -1.27969,-0.54053c-0.60894,0.64893 -0.55078,2.46826 0.02856,3.19189c0.52676,0.18018 0.26689,0.17871 0.80698,-0.01318c0.40371,-0.48779 0.29941,-0.21826 0.34805,-0.8291c-0.27187,-0.49365 -0.11455,-0.33105 -0.78398,-0.54639c0.11411,-0.33838 0.06519,-0.19189 0.42026,-0.47754l0.52515,0.10254c0.53511,0.55518 0.59048,1.46777 0.21079,2.13721c-0.3104,0.23438 -0.39463,0.31348 -0.80815,0.32227c-2.0376,0.04102 -1.7918,-1.97461 -1.52754,-3.38232c0.11221,-0.59766 0.36284,-0.71338 0.86382,-1.0166z" fill="#0894eb"/><path d="M260.02881,28.89668c1.09717,0.40532 0.20654,2.49858 0.65918,3.68496c0.42773,0.37061 0.18457,0.25576 0.76758,0.33076c1.00049,-0.60688 0.42188,-2.59365 0.76904,-3.79116l0.24316,-0.06577l0.16553,0.2499c0.0293,1.41885 0.29736,3.4979 -1.17334,4.29258c-1.93506,-0.13652 -1.49561,-3.41001 -1.43115,-4.70127z" fill="#0894eb"/><path d="M275.24707,260.5415l0.35449,0.25928c0.34277,1.44434 0.33252,3.67383 -1.26709,4.35498c-1.55713,-0.08643 -1.30225,-2.64697 -1.28027,-3.71777c0.02783,-0.57129 -0.0835,-0.35596 0.22559,-0.71777l0.2373,0.03076c0.25635,0.67236 -0.2168,2.47852 0.28564,3.58594c0.47314,0.26514 0.22412,0.20508 0.7793,0.16846c1.03418,-1.01367 0.1333,-2.68652 0.66504,-3.96387z" fill="#0894eb"/><path d="M34.53721,21.53247c0.60894,-0.04717 1.71313,0.05552 1.90635,0.73315c-0.20757,0.254 -0.0772,0.18325 -0.37983,0.23188l-0.32476,-0.40225c-0.41851,-0.20405 -0.48223,-0.14795 -0.94424,-0.08262c-0.72173,0.61802 -0.60029,2.66616 -0.08467,3.26338c0.83906,0.21943 1.15635,-0.09829 1.32539,-0.89077c-0.20625,-0.51533 -0.03179,-0.31992 -0.58682,-0.56294l-0.18501,-0.00015l0.02681,-0.23496c0.44414,-0.19614 0.42363,-0.23115 0.88975,-0.14399c0.81929,0.81299 0.38115,2.38975 -1.10493,2.56318c-1.2041,-0.35098 -1.30767,-1.82871 -1.28101,-2.89775c0.02271,-0.91128 0.08701,-0.98437 0.74297,-1.57617z" fill="#0894eb"/><path d="M128.55293,283.77393c0.89956,0.26807 0.67588,0.79541 1.1625,1.51904c0.19819,-0.59766 0.24565,-0.84668 0.5918,-1.35791l0.27979,-0.04687c0.58301,0.64746 0.39595,2.81836 -0.0249,3.49805c-0.19028,-0.72803 -0.14897,-1.30957 -0.15352,-2.05957l-0.09521,-0.21533c-0.1522,0.3457 -0.30981,0.68994 -0.473,1.03125l-0.25239,0.07324c-0.3293,-0.41162 -0.53525,-1.21729 -0.70854,-1.74756c0.06665,0.92139 0.21519,2.07861 -0.10884,2.93262c-0.52002,-0.68701 -0.30059,-2.73486 -0.21768,-3.62695z" fill="#d91a1b"/><path d="M235.27588,268.02246c1.12793,0.52588 -0.2417,2.62061 0.82471,3.87158c0.49805,0.12158 0.27393,0.15674 0.71338,0.03076c0.59912,-1.06934 0.16553,-2.51807 0.49951,-3.72217l0.27686,-0.0791l0.17725,0.22998c0.02051,1.3374 0.30176,3.85693 -1.31396,4.32129c-1.60693,-0.50977 -1.43408,-3.35156 -1.17773,-4.65234z" fill="#0894eb"/><path d="M255.90674,264.35303c-0.01758,-1.15283 -0.09229,-2.23242 0.20068,-3.34863l0.14209,-0.08057c0.17139,0.82471 0.38086,3.4248 0.05127,4.13086l-0.2373,0.04688c-1.18066,-1.08105 -1.10889,-2.72314 -1.76221,-3.20068l-0.21826,-0.03369c-0.27832,-0.39404 -0.20654,-0.70898 -0.25781,-1.27441c0.53027,0.12891 0.66504,0.0542 0.93604,0.58154c0.48633,0.94482 0.82617,2.15625 1.14551,3.17871z" fill="#0894eb"/><path d="M39.88184,260.6748c0.74077,-0.01318 1.69849,0.00293 2.42358,0.11865c-0.29224,0.26074 -1.40347,0.55078 -1.85215,0.69434c-0.10181,0.36035 -0.07002,0.18018 0.09917,0.63428c0.51021,0.51123 0.84185,0.46143 1.52959,0.76318c-0.398,0.2124 -1.14404,0.1582 -1.62744,0.16406c-0.02065,0.60938 -0.02417,0.78369 0.05977,1.38135c0.66431,0.33252 0.89897,-0.11133 1.7042,0.19043l0.07925,0.20654c-0.43242,0.26807 -1.81772,0.17432 -2.41421,0.17285z" fill="#0894eb"/><path d="M256.82373,29.01167c1.04004,0.00015 1.1748,-0.08423 1.80029,0.81445c-0.6958,0.0293 -0.9624,-0.38145 -1.75488,-0.19849c-0.30762,0.35347 -0.22559,0.14897 -0.22119,0.64702c0.71045,1.01997 3.6665,1.13643 1.3125,3.11997c-0.96533,0.00234 -1.45605,0.12656 -1.85449,-0.88726l-0.06885,0.01611c0.35449,-0.01318 1.34766,0.15513 1.74902,0.21211c0.40283,-0.2751 0.25928,-0.09785 0.44385,-0.55269c-0.49072,-0.98862 -2.01562,-0.7585 -2.1958,-2.12007c0.18896,-0.60132 0.28125,-0.62651 0.78955,-1.05117z" fill="#0894eb"/><path d="M279.75586,29.00273c0.63135,0.00469 1.94531,-0.07632 2.36865,0.21753c-0.49365,0.59297 -1.21436,-0.09258 -1.8457,0.39331c-0.22559,0.64688 -0.2417,0.3498 -0.07617,0.92051c0.43213,0.34951 1.09863,0.38262 1.67139,0.47695l0.07324,0.18237c-0.60352,0.41558 -1.14844,-0.0605 -1.7124,0.34526l0.03662,1.14272c0.47314,0.35024 1.16016,-0.05596 1.85742,0.34937l-0.00439,0.21826c-0.34424,0.21196 -1.87207,0.14048 -2.39795,0.14487c-0.0498,-1.4168 0.00586,-2.96426 0.0293,-4.39116z" fill="#0894eb"/><path d="M131.84019,283.9043c1.09702,-0.04102 1.75459,-0.08936 2.21162,1.06055c-0.03604,1.08252 -0.86675,1.13525 -1.72192,1.19531c-0.10181,0.43652 0.11016,0.75586 -0.26851,1.24365l-0.15234,-0.1377c-0.12832,-1.02832 -0.0791,-2.30566 -0.06885,-3.36182z" fill="#d91a1b"/><path d="M132.28169,284.26611c0.50859,0.04688 0.78413,0.01318 1.16865,0.33984c0.20288,0.40723 0.09668,0.63867 0.00366,1.09277c-0.4875,0.05127 -0.50361,0.07617 -0.99683,-0.04687c-0.29883,-0.54492 -0.18047,-0.65918 -0.17549,-1.38574z" fill="#f7f8f8"/><path d="M29.77397,29.01709c0.53936,0.00176 2.07773,-0.10825 2.37788,0.22661c-0.36328,0.29341 -1.11343,0.18955 -1.74404,0.23496c-0.21562,0.37559 -0.14062,0.76187 -0.1248,1.2123c0.33618,0.30527 1.06011,0.23057 1.57017,0.2373l0.15791,0.19043c-0.52251,0.55371 -1.01631,-0.0312 -1.73203,0.41426l0.00454,1.08179c0.30396,0.51665 1.02129,-0.0356 1.90137,0.4106l-0.0665,0.26616c-0.49058,0.16582 -1.78213,0.10137 -2.36484,0.09756c-0.01216,-1.44624 0.01216,-2.9231 0.02036,-4.37197z" fill="#0894eb"/><path d="M243.2124,268.14111c0.79688,-0.0293 1.19385,-0.14062 1.87354,0.20947l-0.10547,0.12451c-0.80273,0.02637 -1.13232,-0.1333 -1.65527,0.46436c-0.11719,0.43359 -0.14648,0.41309 0.01318,0.82324c0.57861,0.38525 0.68848,0.03223 1.62158,0.28125l0.08496,0.23438c-0.50391,0.40576 -0.70166,-0.0542 -1.5835,0.28418l-0.11572,0.37207l0.04541,0.85107c0.46143,0.33398 0.95215,0.01025 1.75342,0.25049l0.03516,0.26514c-0.47754,0.25342 -1.72998,0.15381 -2.37598,0.15088c0.0249,-0.87012 -0.01318,-3.51709 0.14502,-4.19824z" fill="#0894eb"/><path d="M275.81836,21.43052c0.99023,0.54272 -0.22266,3.65083 1.26416,4.12515c1.71094,-0.68584 0.13037,-3.05171 1.02246,-4.03931l0.18164,0.07017l0.09814,0.34951c0.01025,1.00503 0.17285,2.74863 -0.29883,3.5105c-0.60498,0.48149 -1.55273,0.63926 -2.04053,0.02769c-0.59473,-0.74692 -0.32227,-3.1396 -0.22705,-4.0437z" fill="#0894eb"/><path d="M227.81982,268.07227c0.86719,0.01465 1.49121,-0.03516 2.29834,0.25195c-0.45557,0.31348 -1.07227,0.12598 -1.7417,0.40283c-0.08496,0.59912 -0.12305,0.32227 0.09521,0.86572c0.45703,0.39697 0.59326,0.40283 1.19385,0.60059l0.1875,0.06152l-0.00586,0.0791c-0.20508,0.01611 -0.41016,0.03369 -0.61377,0.05273c-0.77197,0.07324 -0.66064,0.01172 -1.05176,0.49072c0.36768,1.91748 0.68848,0.5874 2.03613,1.18506l0.01172,0.23145c-0.41016,0.25195 -1.77686,0.15967 -2.37451,0.1626c0.03662,-1.48242 0,-2.90332 -0.03516,-4.38428z" fill="#0894eb"/><path d="M49.76704,21.53496c0.71499,-0.01362 1.80146,-0.1103 2.43018,0.12129l0.0271,0.17314c-0.6999,0.44707 -1.13789,-0.03999 -1.94385,0.32065l-0.06123,0.35464c0.50449,1.04297 0.9791,0.73564 1.67021,1.15078c-0.34849,0.18955 -1.1729,0.19014 -1.64795,0.24595c-0.01099,0.56777 -0.00044,0.7853 0.06768,1.34868c0.56396,0.35493 1.18271,-0.13447 1.83647,0.23159l-0.00864,0.22354c-0.37178,0.2499 -1.80762,0.17959 -2.35166,0.1856z" fill="#0894eb"/><path d="M58.87222,260.71436c1.16851,-0.06885 1.12295,-0.20068 1.84233,0.62549l-0.01846,0.18311c-0.63325,-0.07617 -1.37798,-0.36328 -1.84102,-0.19189l-0.08071,0.22412c0.58374,1.69922 2.01445,0.80566 2.18188,2.29688c-0.20596,0.60059 -0.30571,0.65186 -0.7623,1.12793c-0.73813,0.04834 -1.75649,0.08936 -1.90928,-0.79834c0.46963,-0.41016 0.6627,0.55811 1.76382,0.26514c0.34849,-0.43652 0.25415,-0.19922 0.33604,-0.71777c-0.54463,-1.0957 -3.37119,-0.91992 -1.5123,-3.01465z" fill="#0894eb"/><path d="M62.78745,268.0957c0.95303,-0.01025 1.3897,-0.00879 2.34448,0.11279c-0.03999,0.08789 -1.58584,0.57715 -1.84893,0.68262c-0.01743,0.88916 0.68203,1.08545 1.3897,1.35059l0.1793,0.06592l-0.38115,0.09668l0.29224,-0.09375l-0.32212,-0.04102l-0.28286,0.2373c-0.28931,-0.0249 -0.56133,-0.02344 -0.85122,-0.02783c-0.00937,0.52881 -0.00513,0.81885 0.04336,1.34326c0.63252,0.3501 0.78413,-0.01758 1.70918,0.18604l0.11367,0.24023c-0.37588,0.25928 -1.81685,0.19189 -2.36997,0.20068c0.01289,-1.44141 -0.00879,-2.90918 -0.01567,-4.35352z" fill="#0894eb"/><path d="M49.05337,29.01196c0.95361,-0.00908 1.33506,0.00703 2.28325,0.13887c-0.63223,0.20112 -1.54673,0.40049 -1.87632,0.95947l0.08481,0.28271c0.56924,0.40386 1.05791,0.49438 1.72778,0.69331l0.04731,0.13652c-0.69536,0.15967 -1.07256,0.13945 -1.77173,0.14795c-0.01055,0.49995 -0.00117,0.85576 0.02783,1.35498c0.54023,0.38628 1.26167,-0.06768 1.89199,0.30352l-0.01641,0.24155c-0.43843,0.20039 -1.84102,0.12246 -2.40498,0.11924z" fill="#0894eb"/><path d="M224.96777,268.03857c0.65186,0.02637 1.35938,0.20068 1.48535,0.9126c-0.4043,0.4043 -0.68115,-0.54199 -1.63916,-0.36621l-0.24756,0.38232c0.07178,1.31396 4.06348,1.77686 1.02539,3.55664c-1.05908,-0.11133 -1.0415,-0.15674 -1.61426,-0.82324l0.02197,-0.16553c0.54785,0.11279 0.95947,0.23438 1.49707,0.39404c0.59473,-0.21094 0.42773,-0.02637 0.71045,-0.43945c-0.50244,-1.05029 -2.22803,-1.09277 -2.16504,-2.56055c0.27979,-0.53613 0.38818,-0.55518 0.92578,-0.89062z" fill="#0894eb"/><path d="M253.9043,268.5542c0.0835,-0.43506 -0.03223,-0.28271 0.271,-0.52148c1.01367,0.31348 1.58789,2.84326 1.88818,3.84375c0.00879,-1.021 -0.05713,-2.70557 0.18311,-3.63281l0.20215,-0.13184c0.33398,0.45996 0.36182,3.94629 -0.20801,4.36377c-0.80273,-0.66504 -1.18506,-2.52539 -1.67432,-3.37061l-0.15381,-0.05127c0.22266,-0.20068 0.12598,-0.11279 0.22412,-0.48193c-0.36328,-0.20947 -0.16553,-0.13184 -0.73242,-0.01758z" fill="#0894eb"/><path d="M266.11523,268.06787c0.55811,0.00293 0.58154,-0.02197 1.13232,0.16113c0.27979,0.30322 0.41309,0.34277 0.48633,0.68555c-0.63721,-0.16699 -0.89209,-0.28125 -1.53223,-0.22559c-0.36475,0.33105 -0.25049,0.12305 -0.28125,0.68408c0.63721,0.97559 3.81152,1.42236 0.99463,3.15088c-0.67822,-0.05566 -1.41211,-0.2666 -1.68018,-0.95947l0.39404,-0.06445c0.37207,0.28857 0.37061,0.30762 0.80273,0.47607c0.55957,-0.05859 0.57129,-0.09521 1.06055,-0.33691l0.0791,-0.2417c-0.50098,-0.91553 -2.06104,-0.95508 -2.24414,-2.34814c0.16113,-0.53027 0.36182,-0.62695 0.78809,-0.98145z" fill="#0894eb"/><path d="M29.81572,268.08398c0.67031,0.01465 1.50161,0.0791 1.63813,0.86279l-0.12378,0.13184c-0.56118,-0.31201 -0.83862,-0.53467 -1.4376,-0.43945c-0.38804,0.39111 -0.29663,0.16699 -0.33999,0.66797c0.43403,0.62988 1.29258,0.80713 2.05063,1.54102c0.31348,0.9126 -0.23672,1.22607 -0.95303,1.68457c-0.95786,-0.07471 -1.0604,-0.01904 -1.59243,-0.82031l0.03721,-0.17432c0.62578,0.16113 1.07769,0.34424 1.7064,0.23877c0.37734,-0.30029 0.27334,-0.11572 0.37427,-0.53906c-0.43857,-0.97705 -1.99922,-0.68555 -2.13428,-2.13428c0.21841,-0.59033 0.27158,-0.60352 0.77446,-1.01953z" fill="#0894eb"/><path d="M280.6626,268.73145c0.00293,0.87598 0.11719,2.8418 -0.05127,3.58594l-0.2417,0.09961c-0.49365,-0.60791 -0.62695,-4.01074 0.25928,-4.3623c0.84668,0.60059 1.05908,2.88428 1.59375,3.19922l-0.45117,0.63574z" fill="#0894eb"/><path d="M244.71826,21.59048c0.76611,-0.0876 1.91602,-0.04512 2.72314,-0.03896l-2.08154,3.78911c0.52881,0.00088 1.48389,-0.09404 1.875,0.15249l-0.00586,0.3416c-0.97705,0.06211 -1.77246,0.0564 -2.75244,0.04189c0.64453,-1.23647 1.45313,-2.60889 2.1416,-3.83774c-0.68555,-0.00352 -1.56445,0.17095 -1.8999,-0.44839z" fill="#0894eb"/><path d="M151.32568,283.80029c0.08496,0.02637 0.16846,0.05273 0.25195,0.0791c0.66064,0.26807 1.28027,3.02783 1.00781,3.59766c-0.35889,-0.25635 -0.29004,-0.37207 -0.45996,-0.89941c-1.72119,0.14063 -0.90674,0.66357 -1.63916,0.73242c0.12451,-1.07812 0.54639,-2.43896 0.83936,-3.50977z" fill="#d91a1b"/><path d="M267.82178,260.54004l0.22266,0.15967c0.25488,0.73828 -0.58447,3.88477 -1.45459,4.36377c-0.41895,-0.31055 -0.91846,-2.85645 -1.09131,-3.55371c-0.11133,-0.3501 -0.104,-0.33105 -0.08643,-0.7002l0.22119,-0.17432c0.43066,0.50391 0.92432,3.05273 1.12061,3.84082c0.31787,-1.26123 0.64746,-2.72314 1.06787,-3.93604z" fill="#0894eb"/><path d="M261.75732,268.11768c0.49805,-0.00146 1.87646,-0.01318 2.27637,0.14648c-0.6167,0.18604 -1.12354,0.34277 -1.72412,0.57422c-0.09668,0.41162 -0.0542,0.53027 -0.00879,0.95068c0.70459,0.3501 1.13818,0.12451 1.65088,0.49219c-0.64014,0.24463 -1.11328,-0.00732 -1.64941,0.30908l0.02637,1.19531c0.59033,0.32959 1.09277,-0.07764 1.75928,0.25635l0.06299,0.22559c-0.43359,0.28271 -1.80615,0.18604 -2.41113,0.18457z" fill="#0894eb"/><path d="M126.29077,283.78418c0.77871,0.36182 1.43335,2.90479 1.21436,3.6416c-0.41426,-0.24609 -0.34263,-0.37061 -0.56982,-0.93604c-0.87349,0.01611 -0.82793,0.04248 -1.42207,0.71338l-0.12188,0.1377c0.12378,-1.35352 0.32637,-2.29541 0.89941,-3.55664z" fill="#d91a1b"/><path d="M126.32988,284.55762c0.48779,0.44678 0.55283,1.21582 0.37646,1.82373c-0.35728,-0.11133 -0.38921,-0.0791 -0.60967,-0.36475c-0.03076,-0.5874 0.08511,-0.88037 0.2332,-1.45898z" fill="#f7f8f8"/><path d="M17.96704,29.07114c0.48164,-0.0561 2.1019,-0.21035 2.38945,0.06372c-0.84199,1.56958 -0.82632,1.90532 -0.55342,3.5896c0.23877,0.12319 0.4856,0.19688 0.74312,0.27173l0.14517,0.34731c-0.69727,0.04688 -1.75884,0.07485 -2.43823,0.00366l-0.16113,-0.24521c0.36914,-0.6 0.33911,0.04292 1.03799,-0.41689l0.01318,-0.19644c0.04526,-0.74854 0.02021,-1.40845 0.00571,-2.14058c-0.02681,-1.36099 -0.37778,-0.37178 -1.18184,-1.2769z" fill="#0894eb"/><path d="M160.89404,283.77832c0.74268,0.33252 1.50439,2.94727 1.31836,3.59766c-0.43066,-0.15234 -0.46875,-0.45703 -0.75,-0.95654c-1.4707,0.31787 -0.46875,0.4043 -1.47949,0.96094c0.09082,-1.11621 0.56689,-2.52832 0.91113,-3.60205z" fill="#d91a1b"/><path d="M74.05356,268.13086c0.55781,-0.03662 1.69468,-0.10547 2.16504,0.1333c-0.2001,0.22266 -0.24375,0.23877 -0.50273,0.37354l-0.23965,0.12305c-0.12407,0.61084 -0.15439,2.55176 0.07646,3.05127l0.64761,0.18018l0.04922,0.23584l-0.23145,0.23438c-0.57524,0.00586 -1.78901,0.104 -2.1731,-0.22705c0.14985,-0.44238 0.23921,-0.09521 0.93911,-0.49658c0.01963,-0.65186 0.18237,-2.68799 -0.12231,-3.12891c-0.44531,-0.05566 -0.32798,0.00146 -0.70898,-0.18457z" fill="#0894eb"/><path d="M272.55908,268.11914c0.77344,-0.03369 1.3125,-0.08496 2.08447,0.02637l0.11719,0.20215c-0.89941,1.58496 -0.90234,1.81641 -0.49365,3.44238c0.20508,0.08496 0.35742,0.14355 0.57129,0.21533l0.20068,0.06738l-0.06006,0.26514l-0.30469,0.11133c-0.5376,0.00293 -1.37109,0.04541 -1.86182,-0.10693c0.95654,-1.15723 1.21143,-2.27051 0.66357,-3.72656c-0.39404,-0.00146 -0.40137,0.01465 -0.77051,-0.104z" fill="#0894eb"/><path d="M51.91655,268.13379c0.64424,-0.03223 1.40288,-0.04248 2.03628,0.07764c-0.23232,0.20215 -0.46362,0.4043 -0.6939,0.60791c-0.06328,0.80566 -0.08716,1.87939 -0.0583,2.69385c0.02095,0.59326 0.32549,0.19336 0.92476,0.5918l-0.11763,0.33105c-0.7623,0.01025 -1.38955,0.0293 -2.15332,-0.03955l-0.19146,-0.23145l0.14531,-0.20654l0.59077,-0.0498c0.63999,-0.58301 0.40137,-2.56348 -0.06812,-3.29004c-0.15498,-0.24023 -0.27261,0.17578 -0.58022,-0.26221z" fill="#0894eb"/><path d="M50.85352,260.81396c0.69287,-0.11572 1.39512,-0.16699 2.09736,-0.15234l0.09902,0.19629c-0.83496,1.56738 -0.84814,1.90283 -0.54316,3.54199c0.30527,0.1582 0.35669,0.15674 0.69434,0.22852l0.15264,0.30469c-0.64585,0.04834 -1.97256,0.19336 -2.47163,-0.14648l0.1834,-0.22998c0.43843,-0.01465 0.3063,0.01758 0.71675,-0.11426c0.1248,-0.83936 0.11294,-1.71826 0.0832,-2.56494c-0.04087,-1.16895 -0.15894,-0.25781 -1.01191,-1.06348z" fill="#0894eb"/><path d="M45.8165,28.99834c0.88843,-0.01948 1.10669,-0.05962 1.72617,0.5959l-0.0145,0.26821c-0.74692,0.2228 -0.87422,-0.56895 -1.68164,-0.29971c-0.39536,0.71587 -0.40898,2.12534 -0.19702,2.88135c0.37046,0.42466 0.43096,0.39448 0.9627,0.55737c0.19453,-0.18779 0.375,-0.34629 0.57715,-0.525l0.25693,0.01831l-0.01333,0.27817c-2.02148,2.39063 -3.66943,-2.01182 -1.61646,-3.77461z" fill="#0894eb"/><path d="M37.39966,28.99556c0.94468,-0.00659 1.38779,0.02637 2.32192,0.14136c-0.76245,0.24595 -1.90488,0.41309 -1.95703,1.29785c0.20596,0.35127 0.18618,0.32974 0.55518,0.50391c0.49116,-0.04146 0.88521,-0.14019 1.30972,0.07515l0.04688,0.37104c-0.22661,0.00015 -0.45322,0.00278 -0.67983,0.00762c-2.06616,0.05933 -0.4188,1.10098 -1.27661,2.02207l-0.20186,-0.05654c-0.20376,-0.54946 -0.1207,-3.57686 -0.11836,-4.36245z" fill="#0894eb"/><path d="M22.45708,29.60786c0.00908,1.46177 0.06899,2.28076 -0.30469,3.7002c-0.29092,-0.62534 -0.46318,-3.73154 0.21372,-4.18374c0.74399,0.34336 1.35747,2.39268 1.65352,3.18237l-0.45103,0.40928c-0.29429,-0.99053 -0.74604,-2.12432 -1.11152,-3.10811z" fill="#0894eb"/><path d="M32.80005,268.13232c0.62402,-0.02783 1.92422,-0.15088 2.36411,0.1582l-0.05742,0.15967l-0.67075,0.14063c-0.34541,0.62549 -0.16919,2.40381 0.06943,3.09229c0.26411,0.25781 0.3731,0.28271 0.7229,0.40283l0.02021,0.35449c-0.74004,0.01758 -1.61602,0.06885 -2.31885,-0.14062c0.30234,-0.24023 0.47695,-0.34863 0.79717,-0.55518c0.03457,-0.38818 0.14019,-2.73486 -0.10371,-3.10986c-0.39771,-0.61084 -0.07046,0.5918 -0.8231,-0.50244z" fill="#0894eb"/><path d="M276.52441,28.98252c0.11865,-0.00439 0.23877,-0.00674 0.35742,-0.00718c0.77783,0.00073 0.85693,0.10137 1.38281,0.62856l-0.01904,0.27246l-0.24463,0.09419c-0.44385,-0.16802 -0.69287,-0.29106 -1.11621,-0.5083c-0.95215,0.16392 -0.75732,2.25073 -0.61377,2.9896c0.4292,0.46904 0.36182,0.33486 1.06348,0.55518c0.4043,-0.39741 0.35156,-0.4897 0.79102,-0.53101l0.02197,0.25518c-0.42187,0.54697 -0.63867,0.79189 -1.38721,0.75044c-1.63623,-0.76992 -1.49414,-3.50127 -0.23584,-4.49912z" fill="#0894eb"/><path d="M268.02686,29.01123c0.60645,-0.00937 1.88232,-0.10957 2.29688,0.22998c-0.97852,0.11572 -2.09619,0.02197 -1.85449,1.33521c0.46729,0.36782 1.04443,0.32388 1.70361,0.45601l0.20068,0.38452c-0.74268,-0.00835 -1.01074,-0.0293 -1.72705,0.10649c-0.32227,0.61392 0.14355,1.10376 -0.19336,1.81538l-0.26074,0.05903c-0.29883,-0.4686 -0.17285,-3.61772 -0.16553,-4.38662z" fill="#0894eb"/><path d="M232.29785,268.07373c0.67236,-0.00732 1.32715,0.14355 1.77979,0.68555l-0.03516,0.14648l-0.31201,0.18457c-0.38672,-0.16406 -0.77783,-0.31641 -1.17334,-0.4585c-1.0415,0.22266 -0.69141,2.12109 -0.4834,2.93701c0.35303,0.36621 0.40137,0.32959 0.89648,0.41895c0.35156,-0.31055 0.4292,-0.46875 0.8877,-0.42773l-0.03662,0.26807c-2.19873,2.51367 -3.54639,-2.11523 -1.52344,-3.75439z" fill="#0894eb"/><path d="M264.95361,21.52134c0.9375,-0.01553 1.14111,-0.11221 1.74609,0.61963l-0.0293,0.25518l-0.27539,0.03311c-0.46729,-0.43022 -0.53906,-0.6063 -1.17334,-0.45586c-0.8335,0.71851 -0.74707,2.20254 -0.30762,3.11221c0.51416,0.33604 0.22998,0.24287 0.90527,0.21152c0.47461,-0.30542 0.40723,-0.38379 0.81592,-0.30513c0.03809,0.58608 -0.61084,0.91465 -1.10449,0.89985c-2.05225,-0.06167 -1.74902,-3.39771 -0.57715,-4.37051z" fill="#0894eb"/><path d="M32.24604,260.80664c0.90161,-0.14355 1.22007,-0.13037 2.10396,-0.104l0.21416,0.28418l0.16069,-0.12598c-0.12144,0.18018 -0.46362,0.16846 -0.83525,0.5332c-0.05098,0.71484 -0.06563,1.37988 -0.05391,2.08154c0.02666,1.59082 0.17402,0.60938 1.0563,1.44434c-0.80391,0.07471 -1.29624,0.07031 -2.08799,0.0542l-0.11177,-0.30469l-0.29209,0.15967l0.15571,0.1084l-0.14839,-0.0498l0.04175,-0.12158l0.76904,-0.3208c0.16421,-0.83936 0.13198,-2.31445 -0.02402,-3.14941c-0.46113,-0.11133 -0.62607,-0.10547 -0.94819,-0.48926z" fill="#0894eb"/><path d="M250.35645,268.13525c0.62109,-0.03076 1.89551,-0.18896 2.31299,0.1582c-0.11865,0.49072 -0.16406,-0.03076 -0.82178,0.48779c-0.00439,0.65918 -0.11133,2.66309 0.09375,3.10986c0.2959,0.05713 0.39697,0.07617 0.67969,0.17725l-0.00586,0.32959c-0.74707,0.02783 -1.38135,0.0542 -2.13281,0.01758l-0.1377,-0.18604l0.07178,-0.22559c0.30469,-0.06299 0.54199,-0.11865 0.84229,-0.20068c0.09814,-0.54053 0.1084,-2.65723 -0.02783,-3.16553c-0.35596,-0.0498 -0.43799,-0.07031 -0.78223,-0.17725z" fill="#0894eb"/><path d="M37.52241,268.02393c0.57979,0.08936 1.21831,0.32666 1.51304,0.8584c-0.66987,0.51416 -0.65229,-0.41016 -1.81699,-0.14648c-0.50186,0.62842 -0.38701,2.18115 -0.08555,2.85205c0.41675,0.35156 0.37778,0.3501 0.91157,0.43359c0.33164,-0.34277 0.31201,-0.38525 0.75762,-0.51123l0.16069,0.12451c-0.796,2.2749 -3.47461,-0.10693 -2.4832,-2.18115c0.40532,-0.84814 -0.16904,-0.65771 1.04282,-1.42969z" fill="#0894eb"/><path d="M47.43779,260.68652c0.98188,-0.01611 1.26167,0.00586 2.23213,0.16113c-0.11719,0.04102 -0.23423,0.0835 -0.35098,0.12598c-0.65142,0.23584 -1.13657,0.33105 -1.43467,0.96973c0.25181,1.33301 0.90674,0.06299 1.84585,1.01074c-0.42598,0.11865 -1.13613,0.15234 -1.59712,0.19336c-0.40811,0.73828 0.06709,1.14697 -0.28359,1.79297l-0.29224,0.00293c-0.1856,-0.36475 -0.11646,-3.60645 -0.11938,-4.25684z" fill="#0894eb"/><path d="M22.12178,21.58931c0.51196,-0.046 1.95674,-0.13242 2.3751,0.07295l0.02314,0.19805c-0.48765,0.10649 -0.52778,0.05508 -0.90293,0.34131c-0.0854,0.60571 -0.12612,2.55791 0.08613,3.07207c0.41616,0.04834 0.44019,0.03135 0.81709,0.19702l0.05273,0.38086c-0.52617,0.00762 -1.81699,0.08159 -2.24443,-0.07529c0.83452,-1.10713 1.22651,-2.3877 0.65815,-3.7311c-0.35566,-0.03354 -0.40898,-0.04834 -0.75366,-0.14868z" fill="#0894eb"/><path d="M25.22871,260.71729c0.93208,-0.01758 1.33125,0.01465 2.24253,0.12012c-0.68101,0.21094 -1.07227,0.27979 -1.59375,0.74707c-0.25605,0.56982 -0.22573,0.28418 -0.11089,0.88623c0.48721,0.31787 0.64438,-0.01611 1.51963,0.20508l0.2061,0.36621c-0.64849,0.00586 -0.98599,0.00586 -1.62129,0.09961c-0.36563,0.5874 0.14985,1.20264 -0.24302,1.82666l-0.28301,0.00146c-0.19307,-0.42773 -0.1144,-3.53174 -0.11631,-4.25244z" fill="#0894eb"/><path d="M289.97314,104.83008l0.22559,0.07339c-0.08936,5.17793 0.06006,10.39482 -0.00146,15.5751c-0.01318,1.01982 0.04834,2.08857 -0.0791,3.09829l-0.11572,-0.22119c0.18311,-5.73149 0.01611,-12.72539 -0.0293,-18.52559z" fill="#cadce7"/><path d="M26.62324,270.18311c0.20581,-0.58594 0.53115,-1.70654 1.13086,-1.93506c0.07471,0.44678 -0.19893,0.89063 -0.39229,1.33447c-0.70942,1.3623 -0.29443,1.68164 -0.90132,2.79639c-0.28022,-0.33691 -0.09609,-1.04297 -0.2707,-1.61279c-0.31143,-1.01807 -0.76055,-1.70215 -1.03286,-2.75537l0.34292,0.11865c0.47505,0.54639 0.80566,1.37988 1.12339,2.05371z" fill="#0894eb"/><path d="M230.87549,259.93359c0.55371,0.8584 0.84814,1.75342 1.19385,2.70557l0.43652,0.14648l-0.2915,0.56982l-0.2666,0.05566c-0.38525,-0.41748 -0.57422,-1.36377 -0.74268,-1.9541c-0.01611,0.9082 0.14648,2.94141 -0.21094,3.5376l-0.17725,-0.0249c-0.39551,-0.91992 -0.23291,-4.02979 0.05859,-5.03613z" fill="#0894eb"/><path d="M21.66797,260.70557c0.92534,-0.00439 1.28013,0.01904 2.19683,0.14502c-0.64834,0.20801 -1.20967,0.32373 -1.67842,0.78809c-0.19043,0.51855 -0.17798,0.26074 -0.01992,0.80566c0.6772,0.48047 1.14082,-0.19043 1.79341,0.5376c-0.43418,0.07471 -1.14272,0.09375 -1.67476,0.16699c-0.38467,0.71045 0.13125,1.19531 -0.25137,1.80469l-0.23452,0.0293c-0.22046,-0.49805 -0.13301,-3.52295 -0.13125,-4.27734z" fill="#0894eb"/><path d="M62.31284,260.65869c0.56279,-0.01611 1.04971,-0.02637 1.61191,-0.00879l0.11221,0.27979l0.05054,-0.25928l0.08804,0.2124l0.22661,-0.08789c-0.18735,0.10107 -0.70166,0.36914 -0.78706,0.50684c-0.30645,0.49072 -0.18647,2.90332 -0.18105,3.50684l-0.23994,0.16992c-0.82017,-0.28418 0.05522,-2.94287 -0.55049,-3.78076c-0.42554,-0.03809 -0.4894,0.00586 -0.82339,-0.23437l0.075,-0.20508z" fill="#0894eb"/><path d="M82.24424,270.20654c0.29517,-0.80566 0.38599,-1.24365 0.96563,-1.87939l0.17358,-0.00439c0.02256,0.59473 -0.34028,1.17627 -0.60645,1.73145c-0.50054,0.98584 -0.11323,1.88086 -0.68042,2.4082c-0.36694,-0.61377 -0.01421,-1.1543 -0.20391,-1.80029c-0.26177,-0.89209 -0.91992,-1.67578 -1.11211,-2.62061l0.43828,0.10693c0.40371,0.56982 0.73286,1.40479 1.02539,2.05811z" fill="#0894eb"/><path d="M216.06152,46.38252l0.20947,0.20083c0.17139,0.63516 0.10547,1.57485 0.09668,2.2604c0.75439,-0.01055 1.27881,-0.05098 2.02441,0.09639c-0.60498,0.1812 -1.38135,0.13711 -2.03027,0.14238c0.01025,0.89385 -0.01465,1.57178 -0.07031,2.46255l-0.28125,-0.11836c-0.19775,-0.64189 -0.11865,-1.58833 -0.10693,-2.29014c-0.51709,-0.00396 -1.51465,0.04204 -1.91455,-0.20244c0.55518,-0.21973 1.29639,-0.15601 1.91455,-0.15278c-0.00879,-0.81958 -0.08203,-1.62979 0.1582,-2.39883z" fill="#8497ab"/><path d="M135.03867,283.93359l1.30825,-0.02197l0.19585,0.26953l-0.26177,-0.25781l0.61802,0.09814c-0.0104,0.03223 -1.1313,0.44385 -1.44229,0.6167l0.04731,0.33545c0.3293,0.43652 0.49775,0.46436 1.02173,0.70898l0.17534,0.08203l-0.11733,0.09082c-0.5105,0.02197 -0.75864,-0.01758 -1.2041,0.27539c0.09155,1.2334 0.23394,0.75293 1.20718,1.3125l-0.32476,-0.09961l-0.25693,0.27686c-0.33633,-0.02197 -0.65493,-0.02783 -0.99126,-0.03662c-0.00996,-1.21582 -0.00161,-2.43311 0.02476,-3.65039z" fill="#d91a1b"/><path d="M268.23193,21.4229l0.38672,0.16875c0.33105,0.73696 0.17139,2.90859 0.14063,3.77256c0.76758,-0.03062 1.56738,-0.23101 2.03467,0.40825c-0.81738,0.09038 -1.76221,0.0835 -2.59424,0.10107c-0.01758,-1.52036 -0.03223,-2.9269 0.03223,-4.45063z" fill="#0894eb"/><path d="M58.90928,268.13672c0.58301,-0.04687 2.35723,-0.13623 2.75039,0.16406l-0.06899,0.18457l-0.84551,0.15234c-0.28945,0.38232 -0.14033,2.38623 -0.12656,2.98096c-0.02314,0.59033 0.08862,0.37793 -0.18208,0.7998c-0.88096,-0.15674 -0.09961,-3.16406 -0.51123,-3.7793c-0.11821,-0.17725 -0.39595,0.23438 -1.01602,-0.50244z" fill="#0894eb"/><path d="M268.80469,268.13232c0.63574,-0.0293 2.47412,-0.17432 2.85059,0.16113c-0.19189,0.42041 -0.42187,0.04688 -1.08838,0.44971c-0.16113,0.66211 -0.05273,2.13135 -0.02637,2.87549c-0.00732,0.60498 0.08643,0.35156 -0.22559,0.80859l-0.21973,-0.00146c-0.20947,-0.61523 0.01172,-2.59424 -0.14209,-3.63135c-0.39844,-0.48047 -0.2124,-0.02783 -1.06348,-0.32373z" fill="#0894eb"/><path d="M175.53662,283.91016c0.7793,-0.01611 1.12354,0.01318 1.89844,0.11133c-0.54199,0.22852 -1.24658,0.40283 -1.42822,0.96826c0.27393,0.39551 0.85107,0.57422 1.31836,0.7793c-0.48633,0.26367 -0.75146,0.01025 -1.39307,0.35889c0.03955,0.35303 0.06299,0.47168 0.15088,0.81592c0.37354,0.20947 0.73535,0.33984 1.13086,0.49805l-0.34424,-0.09082l-0.22412,0.24463c-0.36621,0 -0.72656,-0.01611 -1.09277,-0.0293z" fill="#d91a1b"/><path d="M44.36338,267.96973l0.33809,0.19775c0.2231,0.60205 0.13887,3.05566 0.13184,3.7998c0.60088,-0.01904 1.23604,-0.09961 1.7877,0.10547l0.09917,0.3208c-0.74385,0.04395 -1.66685,0.03662 -2.42549,0.0498c-0.02666,-1.16309 -0.12671,-3.41455 0.0687,-4.47363z" fill="#0894eb"/><path d="M279.9917,260.81396c0.77783,-0.10986 2.06689,-0.21094 2.81689,0.0293c-0.43652,0.18457 -0.52295,0.20801 -0.92432,0.48193c-0.20654,0.80859 -0.12158,1.95117 -0.10254,2.82275c0.03223,0.4043 0.07471,0.42334 -0.10254,0.77344l-0.18604,0.05127c-0.33545,-0.62988 -0.2666,-2.77295 -0.26807,-3.54199c-0.31787,-0.55078 -0.29004,0.10547 -1.2334,-0.6167z" fill="#0894eb"/><path d="M84.36709,46.47832l0.24639,0.18252c0.20259,0.53643 0.16509,1.57427 0.17769,2.19023c0.75747,-0.01875 1.1354,-0.04526 1.89683,0.09126c-0.48955,0.17271 -1.33872,0.12583 -1.8895,0.12817c-0.00161,0.81636 -0.0583,1.62847 -0.1062,2.44336l-0.26118,-0.22031c-0.16011,-0.6542 -0.09683,-1.48579 -0.08496,-2.17705c-0.49995,0.01084 -1.62085,0.09756 -1.99863,-0.19365c0.67163,-0.21929 1.28203,-0.1541 1.99614,-0.14648z" fill="#8497ab"/><path d="M173.44482,287.02002c0.27539,-0.81592 0.49805,-2.61182 1.03711,-3.0791l0.18164,0.11719l-0.07471,0.30176c-0.28271,1.21436 -0.6123,2.78027 -1.11914,3.88916c-0.45703,-1.08105 -1.07812,-3.23584 -1.18799,-4.396c0.7002,0.45996 0.93164,2.21338 1.16309,3.16699z" fill="#d91a1b"/><path d="M77.18394,268.13379c0.6416,-0.05859 2.06484,-0.07471 2.68945,0.00732l0.1626,0.25049c-0.31597,0.25635 -0.69741,0.26074 -1.1436,0.34863c-0.13052,0.47607 -0.08394,2.27637 -0.08247,2.87842c-0.01597,0.58008 0.08013,0.34424 -0.19819,0.76611c-0.6583,-0.2168 0.12554,-2.91357 -0.46333,-3.78369c-0.38437,-0.03076 -0.49116,-0.0293 -0.85928,-0.12891z" fill="#0894eb"/><path d="M290.02441,134.39487l0.14502,0.07515c0.18311,2.68594 -0.0835,6.7043 0.0249,9.54272c0.04395,1.12412 0.06592,6.52925 -0.06592,7.4228l-0.10254,-0.2373c-0.20654,-5.25117 0.00732,-11.45771 -0.00146,-16.80337z" fill="#cadce7"/><path d="M248.61768,21.67764l0.59326,0.30176l0.02344,1.34824l0.00732,0.53364c-0.01465,0.14487 -0.0293,0.29004 -0.03955,0.43535c-0.03809,0.54419 -0.06738,0.64702 0.21973,0.97485c0.53906,0.02651 1.30225,0.01348 1.72559,0.32813c-0.37354,0.3416 -1.93652,0.26484 -2.48291,0.25386c0.01318,-1.3563 0.06006,-2.83345 -0.04687,-4.17583z" fill="#0894eb"/><path d="M147.5332,283.90576c0.55078,-0.00439 1.33887,-0.04834 1.85156,0.07764l0.07617,0.19482l-0.25635,0.1626c-0.46582,-0.03662 -0.62549,-0.07324 -1.08838,0.03662c-0.23877,0.40137 -0.19482,0.1875 -0.10986,0.66504c0.33545,0.39404 0.60205,0.4541 1.08252,0.65771l0.19336,0.08203c-0.81738,0.12891 -1.00049,0.02051 -1.4707,0.54639c0.09668,0.479 0.00879,0.33545 0.26953,0.70313c0.52002,0.12012 0.75586,0.20801 1.2583,0.39844c-0.59033,0.14648 -1.17334,0.11279 -1.78564,0.11719z" fill="#d91a1b"/><path d="M25.61807,29.071c0.58638,-0.08013 2.47866,-0.15117 2.98623,0.08042c-0.18926,0.26191 -0.79233,0.39302 -1.16587,0.52251c-0.09595,0.52559 -0.0501,2.11113 -0.04497,2.73574c0.02241,0.45278 -0.00161,0.47285 -0.10767,0.92212l-0.10298,0.00234c-0.43008,-0.92256 -0.08218,-3.01113 -0.40093,-3.78647c-0.08276,-0.20156 -0.44531,0.29312 -1.16382,-0.47666z" fill="#0894eb"/><path d="M238.64355,260.60889l0.4043,0.15527c0.271,0.70166 0.12451,2.97217 0.09521,3.7749c0.76025,-0.02783 1.55273,-0.20947 2.06689,0.37939c-0.63135,0.10986 -1.87646,0.07617 -2.56201,0.07764z" fill="#0894eb"/><path d="M24.01963,32.30669c0.15483,-0.84536 -0.11367,-3.01318 0.2603,-3.28887c0.48311,0.83979 0.68115,3.4355 0.18647,4.27354c-0.38979,0.15439 -0.19175,0.14707 -0.61333,-0.02197l-0.28447,-0.55342z" fill="#0894eb"/><path d="M169.35938,283.95264c0.58154,-0.03076 1.28467,-0.12891 1.81641,0.06006c0.08643,0.70898 -0.0542,-0.06592 -0.50977,0.52148c-0.02783,0.55811 -0.13916,2.18262 0.10254,2.62061l0.53027,0.13623l-0.09521,0.27686c-0.48486,0.02344 -1.21729,0.12305 -1.56299,-0.1084c0.4043,-0.97705 0.79688,-1.99072 0.42188,-3.06006l-0.60205,-0.15967z" fill="#d91a1b"/><path d="M232.06934,262.63916c0.19189,-0.70605 0.29443,-1.29932 0.69727,-1.90283l0.20947,-0.07178c0.52588,0.61377 0.61816,3.55225 0.29883,4.2583l-0.22412,0.00879c-0.34863,-0.83057 -0.01611,-2.66748 -0.28711,-2.92969c-0.1084,0.30029 -0.17432,0.47314 -0.25781,0.78369z" fill="#0894eb"/><path d="M276.99902,260.62354l0.28125,0.11865c0.30029,0.47314 0.19629,3.11865 0.18896,3.78369c0.74707,-0.02344 1.45459,-0.19336 1.96289,0.37354c-0.60498,0.12158 -1.84424,0.09814 -2.50928,0.10693c0.03809,-1.46045 0.06299,-2.92236 0.07617,-4.38281z" fill="#0894eb"/><path d="M28.99614,260.54004c0.54419,0.60791 0.32886,3.0293 0.31758,4.00488c0.65303,-0.03516 1.15166,-0.10986 1.78301,0.05273l0.2042,0.35303c-0.76626,0.04541 -1.67461,0.03369 -2.45435,0.04102c-0.01479,-1.05615 -0.13374,-3.54053 0.14956,-4.45166z" fill="#0894eb"/><path d="M282.2417,270.60645c-0.05713,-0.9668 -0.20068,-1.47803 0.2168,-2.34229l0.18311,-0.00146c0.27539,0.56396 0.17578,1.01807 0.1377,1.65674c0.02637,0.79541 0.19629,2.07129 -0.31787,2.62354c-0.41162,-0.04834 -0.51123,-0.26514 -0.68994,-0.65332l0.45117,-0.63574z" fill="#0894eb"/><path d="M164.05078,283.83838c0.6123,0.04395 0.74121,0.17578 1.29053,0.49951l0.03223,0.2124l-0.24609,0.12158c-0.31201,-0.07031 -0.44092,-0.10693 -0.73242,-0.22412l-0.25049,-0.10107l-0.25928,0.15381c-0.2666,0.76465 -0.19189,1.58936 -0.09521,2.3877c0.33691,0.38232 0.12891,0.24902 0.67676,0.35889c0.22852,-0.1377 0.37939,-0.21387 0.6167,-0.33252l0.12744,0.10693c-0.40576,0.60645 -0.97412,0.67822 -1.58203,0.32227c-0.5625,-0.83496 -0.36182,-1.40186 -0.33838,-2.37891c0.01465,-0.56982 0.32666,-0.77344 0.76025,-1.12646z" fill="#d91a1b"/><path d="M290.01416,267.40723c0.55664,0.89063 -0.00732,6.59473 0.09668,7.94678c0.09814,1.2876 0.21387,3.63135 0.04395,4.8999l-0.1582,-0.06299c0.19482,-2.91064 -0.0835,-6.29736 -0.04248,-9.22998c0.01465,-0.98877 -0.104,-2.62646 0.06006,-3.55371z" fill="#cadce7"/><path d="M122.31782,283.94971c0.5606,-0.04395 1.77598,-0.15088 2.22964,0.06299l0.02813,0.20508l-0.81021,0.25635c-0.17446,0.44238 -0.10547,1.8252 -0.1021,2.37891c0.00146,0.41455 0.01553,0.26367 -0.1377,0.66797l-0.18999,0.05273c-0.33999,-1.13086 0.11265,-2.38037 -0.254,-3.18311l-0.58989,-0.12012z" fill="#d91a1b"/><path d="M84.44048,105.59692c0.4188,0.67866 0.23994,7.23501 0.15835,8.39209c-0.00864,-0.00806 -0.01948,-0.0145 -0.02607,-0.02432c-0.51694,-0.76479 -0.23511,-7.14346 -0.13228,-8.36777z" fill="#cadce7"/><path d="M84.38013,30.83013c0.02842,0.02109 0.0605,0.03794 0.08511,0.06343c0.44692,0.46201 0.22793,7.18726 0.1311,8.22773c-0.40459,-0.42319 -0.22134,-7.25566 -0.21621,-8.29116z" fill="#cadce7"/><path d="M216.00146,77.72227l0.20508,0.22441c0.09668,1.76001 0.104,6.19951 -0.04834,7.92158c-0.45703,-0.65859 -0.19043,-6.88213 -0.15674,-8.146z" fill="#cadce7"/><path d="M290.00684,40.50703l0.05859,0.01934c0.32373,0.46655 0.1084,5.44526 0.14355,6.49468c0.03369,1.01792 -0.37793,1.30386 0.61963,1.96377l-0.35449,0.00952c-0.22119,0.33838 -0.04687,0.34673 -0.38525,0.66943l-0.11133,-0.08467c-0.08057,-0.34893 -0.12012,-0.39785 -0.08496,-0.74824c0.26221,-2.61606 0.11865,-5.65474 0.11426,-8.32383z" fill="#cadce7"/><path d="M36.97881,11.78278c0.73887,-0.20077 10.29331,-0.14134 10.5022,0.06992l-0.57539,0.08282c-2.50957,-0.25068 -7.7354,0.30265 -9.92681,-0.15274z" fill="#cadce7"/><path d="M166.13525,283.95703c0.52588,-0.04248 1.86475,-0.12598 2.29541,0.08643l-0.01611,0.19775c-0.24316,0.07617 -0.479,0.10986 -0.73242,0.13477c-0.20947,0.5625 -0.11426,1.81641 -0.09961,2.47705c-0.01172,0.5332 0.09229,0.33838 -0.16553,0.69287l-0.16553,-0.06299c-0.16553,-0.56982 -0.11719,-1.47803 -0.10693,-2.07422c0.02637,-1.64941 -0.17432,-0.61963 -1.00928,-1.45166z" fill="#d91a1b"/><path d="M153.95068,283.81494l0.27246,0.24023c0.16699,0.78662 0.12305,2.25146 0.12598,3.11426c0.78369,0.04688 1.10449,-0.08936 1.57764,0.33984l-2.12842,0.06445c0.00439,-1.02979 -0.0498,-2.81543 0.15234,-3.75879z" fill="#d91a1b"/><path d="M84.40737,78.76479c0.57378,0.69536 0.23423,6.31846 0.23408,7.57676c-0.17593,0.0498 -0.08643,0.05479 -0.26675,-0.03472c-0.03896,-2.51396 -0.02798,-5.02852 0.03267,-7.54204z" fill="#cadce7"/><path d="M253.9043,268.5542c0.56689,-0.11426 0.36914,-0.19189 0.73242,0.01758c-0.09814,0.36914 -0.00146,0.28125 -0.22412,0.48193l0.15381,0.05127c-0.10107,0.81738 -0.00879,2.19141 -0.06299,3.14502l-0.23877,0.14941c-0.4292,-0.44238 -0.32812,-3.0249 -0.36035,-3.84521z" fill="#0894eb"/><path d="M216.02344,69.20405c0.43066,0.61377 0.44971,6.30073 -0.01904,6.91304c-0.11719,-2.39458 -0.05713,-4.52256 0.01904,-6.91304z" fill="#cadce7"/><path d="M84.37515,86.93643c0.01392,0.01055 0.02988,0.0189 0.04175,0.03179c0.55854,0.60117 0.19746,6.49497 0.22559,7.74536l-0.21841,-0.20713c-0.14707,-2.29058 -0.06431,-5.24839 -0.04893,-7.57002z" fill="#cadce7"/><path d="M225.21973,11.53742c0.9917,0.28529 7.94092,0.20273 9.45996,0.10481c1.23486,-0.07957 -0.94336,-0.05919 0.43945,-0.05684l0.06445,0.32125c-1.59229,-0.28674 -9.38965,0.30577 -10.14404,-0.14287z" fill="#cadce7"/><path d="M84.38994,68.62573l0.20479,-0.03999c0.17915,1.53428 0.06592,5.5437 0.02666,7.21582c-0.14897,0.03193 -0.0624,0.03252 -0.25283,-0.05801c-0.01084,-2.34346 0.07339,-4.80688 0.02139,-7.11782z" fill="#cadce7"/><path d="M21.84229,249.10107c0.55825,-0.19189 5.64126,-0.11133 6.49438,-0.07031l-0.02241,0.26807c-1.13306,-0.1084 -6.0189,0.2373 -6.47197,-0.19775z" fill="#cadce7"/><path d="M41.02749,249.10693c0.6457,-0.23877 6.37368,-0.18018 6.95566,0.1377c-0.05142,0.00879 -0.30278,0.05273 -0.38057,0.0498c-0.89839,-0.03955 -6.14077,0.20215 -6.5751,-0.1875z" fill="#cadce7"/><path d="M216.02344,58.66289c0.43359,0.43198 0.20508,6.87378 0.20068,8.04155c-0.39551,-0.48018 -0.28857,-1.6541 -0.27979,-2.30918c0.02637,-1.91089 0.05713,-3.82134 0.0791,-5.73237z" fill="#cadce7"/><path d="M217.2334,249.10693c0.63135,-0.17725 5.27344,-0.11865 6.13184,-0.07617l0.16113,0.20654c-0.65039,0.15674 -5.87549,0.18164 -6.29297,-0.13037z" fill="#cadce7"/><path d="M216.0249,22.48184c0.72949,0.77915 0.11719,4.61514 0.22852,6.02065l-0.24463,-0.21738c-0.16846,-1.39336 -0.02344,-4.32876 0.01611,-5.80327z" fill="#cadce7"/><path d="M253.8252,260.59277c0.05127,0.56543 -0.02051,0.88037 0.25781,1.27441l0.21826,0.03369c0.01758,0.83057 0.12598,2.30273 -0.30176,2.98535c-0.44824,-0.82617 -0.32666,-3.37207 -0.17432,-4.29346z" fill="#0894eb"/><path d="M289.97754,67.18594l0.22559,0.07061c-0.0542,1.38984 0.20508,7.05498 -0.1333,7.94839c-0.10547,-0.81416 -0.2666,-7.23633 -0.09229,-8.01899z" fill="#cadce7"/><path d="M289.98633,151.99219c0.16699,0.04102 0.08057,-0.00293 0.21973,0.19922c0.01465,1.02979 0.06152,9.50391 -0.09521,10.0166l-0.18457,-0.01025c0.30322,-1.99072 -0.03955,-5.81104 0.06445,-7.9541c0.03516,-0.70459 -0.104,-1.51611 -0.00439,-2.25146z" fill="#cadce7"/><path d="M84.40708,96.63413c0.12847,0.1062 0.15117,0.18691 0.24434,0.34087c0.03457,1.1313 0.11499,5.57754 -0.15366,6.41396c-0.23818,-0.38789 -0.11924,-6.02681 -0.09067,-6.75483z" fill="#cadce7"/><path d="M84.37383,21.91084l0.25723,-0.00308c0.10532,1.70684 0.07749,4.83193 -0.0208,6.54668c-0.46509,-0.39258 -0.18164,-5.55337 -0.23643,-6.5436z" fill="#cadce7"/><path d="M227.66748,249.10254c0.56396,-0.21973 5.24854,-0.1875 5.76563,0.13477c-1.50879,0.15967 -4.01367,0.08496 -5.5752,0.06885z" fill="#cadce7"/><path d="M264.96094,249.08936c0.76025,-0.1333 5.37891,-0.23584 5.80225,0.17285c-0.93018,0.03369 -5.25879,0.27246 -5.80225,-0.17285z" fill="#cadce7"/><path d="M18.70928,11.5349c0.28066,0.07153 0.29297,0.08571 0.55913,0.20142c-0.25591,0.77612 -0.08804,3.26911 -0.04658,4.20397l-0.21738,0.12656c-0.38115,-0.54448 -0.25532,-3.56183 -0.29517,-4.53195z" fill="#cadce7"/><path d="M68.13062,249.09961c0.56865,-0.18164 4.06553,-0.0835 4.88877,-0.06738l0.17124,0.20361c-0.54858,0.17432 -4.74009,0.18457 -5.06001,-0.13623z" fill="#cadce7"/><path d="M84.40986,57.52896c0.02256,0.01772 0.04893,0.03149 0.06753,0.05332c0.44355,0.52046 0.12349,4.51201 0.16318,5.48086l-0.24067,-0.24126c-0.0646,-1.53647 -0.0728,-3.75293 0.00996,-5.29292z" fill="#cadce7"/><path d="M84.39038,13.70307c0.01333,0.01014 0.02856,0.01818 0.03984,0.03041c0.54727,0.58891 0.20596,4.38957 0.17563,5.33219c-0.43037,-0.48911 -0.22441,-4.4268 -0.21548,-5.3626z" fill="#cadce7"/><path d="M289.97021,21.91406l0.20068,0.12686c0.06738,1.40273 0.08203,5.59541 -0.06006,6.91992c-0.30029,-1.44917 -0.00732,-5.31929 -0.14062,-7.04678z" fill="#cadce7"/><path d="M256.32422,249.11279c0.83203,-0.1626 3.74561,-0.09961 4.78125,-0.09082l0.16113,0.2124c-0.75293,0.20508 -4.13965,0.17139 -4.94238,-0.12158z" fill="#cadce7"/><path d="M288.70313,11.44336l1.05469,-0.078c0.30322,-0.66501 0.13477,-3.09986 0.37207,-4.04845c0.0293,0.65423 0.07471,3.8125 0.16553,4.25808c-0.64746,0.01154 -0.94336,-0.03902 -1.59229,-0.13163z" fill="#cadce7"/><path d="M290.02002,257.44482c0.27832,0.49805 0.28711,5.04639 0.03809,5.52686l-0.08496,-0.25195c0.01465,-1.35645 -0.09375,-4.07666 0.04688,-5.2749z" fill="#cadce7"/><path d="M30.2603,23.65312c0.26484,-0.01172 0.52969,-0.02124 0.79453,-0.02842c0.55664,-0.01201 0.94834,-0.08027 1.29229,0.24551l-0.15864,0.28901c-0.56777,0.01201 -1.80894,0.1481 -2.14468,-0.26616z" fill="#0894eb"/><path d="M43.6686,262.86328c0.66562,-0.0249 1.50132,-0.14355 2.07847,0.08789l0.11235,0.36475c-0.61538,0.02783 -1.59404,0.1582 -2.10864,-0.09229z" fill="#0894eb"/><path d="M290.09326,222.90088c0.17432,0.54053 0.10107,4.31543 0.09814,5.09912l-0.19775,0.1333c0.00146,-1.00781 -0.07764,-4.46045 0.09961,-5.23242z" fill="#cadce7"/><path d="M237.09521,48.99961c0.43066,-0.17754 5.85645,-0.11543 6.43213,-0.00029c-0.60645,0.14561 -5.88867,0.14194 -6.43213,0.00029z" fill="#cadce7"/><path d="M248.61768,21.67764c0.68262,-0.26396 1.48096,-0.2417 2.17676,-0.03223l0.11133,0.17432c-0.55225,0.2543 -1.0708,0.17373 -1.69482,0.15967z" fill="#0894eb"/><path d="M290.05078,287.81543l0.09814,0.01465c0.13477,1.28027 0.06299,3.22998 -0.07178,4.50732c-0.14648,-1.14697 -0.12891,-3.35742 -0.02637,-4.52197z" fill="#cadce7"/><path d="M248.87842,249.09814c0.4541,-0.16699 2.14014,-0.09229 2.70557,-0.07617l0.20215,0.21387c-0.13184,0.00732 -0.26367,0.01318 -0.39551,0.01904c-0.65479,0.0293 -2.12988,0.19336 -2.51221,-0.15674z" fill="#cadce7"/><path d="M84.36958,41.36968l0.24302,0.20903c0.12261,0.65083 0.02109,2.06865 0.04233,2.86758l-0.24111,0.0293c-0.07588,-0.92241 -0.04365,-2.15508 -0.04424,-3.10591z" fill="#cadce7"/><path d="M219.35889,48.99844c0.59326,-0.1437 4.52783,-0.15234 5.15918,0.00308c-0.4541,0.14546 -4.48389,0.11895 -5.15918,-0.00308z" fill="#cadce7"/><path d="M59.93716,249.10693c0.3873,-0.1626 2.12944,-0.09229 2.68081,-0.09082l0.14106,0.2168c-0.21343,0.08496 -2.25513,0.06592 -2.62544,0.07031z" fill="#cadce7"/><path d="M215.99414,6.554l0.21973,0.05108c0.11133,1.00825 0.06738,2.14378 0.0542,3.16852c-0.40283,-0.45237 -0.27539,-2.48634 -0.27393,-3.21959z" fill="#cadce7"/><path d="M249.23438,23.32764c0.59326,-0.00557 1.01221,-0.0813 1.51318,0.21416l-0.03662,0.17373c-0.54785,0.23525 -0.85254,0.16729 -1.46924,0.14575z" fill="#0894eb"/><path d="M290.01855,82.39526l0.1377,0.07295c0.08203,1.18096 0.03516,2.67012 0.03076,3.87627l-0.1582,-0.06665c-0.05859,-1.27837 0.03955,-2.59072 -0.01025,-3.88257z" fill="#cadce7"/><path d="M290.02588,128.54224l0.15967,0.09521c0.0498,1.29272 0.00732,2.57549 -0.02197,3.86821l-0.12891,-0.10298c-0.01465,-1.28672 -0.01904,-2.57358 -0.00879,-3.86045z" fill="#cadce7"/><path d="M7.03944,249.09961c0.46402,-0.13623 1.67411,-0.20508 2.03098,0.1377c-0.47121,0.12891 -1.6754,0.20947 -2.03098,-0.1377z" fill="#cadce7"/><path d="M14.30505,249.09375c0.90984,-0.09082 1.25115,-0.11279 2.1721,-0.07324l0.17739,0.21826c-0.53877,0.18164 -1.8271,0.12598 -2.34949,-0.14502z" fill="#cadce7"/><path d="M289.99951,232.84131l0.05859,0.01904c0.2373,0.34863 0.1333,2.84619 0.12451,3.49219l-0.15381,-0.09668z" fill="#cadce7"/><path d="M290.01563,30.97881l0.104,0.04351c0.13916,0.43096 0.07178,2.72666 0.06738,3.32271c-0.29443,-0.59751 -0.18018,-2.5749 -0.17139,-3.36621z" fill="#cadce7"/><path d="M30.32622,249.10107c0.33472,-0.11865 1.16528,-0.08936 1.53149,-0.0835l0.19277,0.22266c-0.45674,0.09961 -1.39307,0.16992 -1.72427,-0.13916z" fill="#cadce7"/><path d="M289.99951,229.03125l0.08643,0.0293c0.18896,0.4585 0.1084,2.41113 0.10547,3.04395l-0.1582,-0.09814c-0.01904,-0.9917 -0.03076,-1.9834 -0.03369,-2.9751z" fill="#cadce7"/><path d="M290.06689,94.86489c0.22559,0.53335 0.19336,2.49287 0.04541,3.02168c-0.2124,-0.40225 -0.14941,-2.48247 -0.04541,-3.02168z" fill="#cadce7"/><path d="M38.68799,249.10547c0.60249,-0.19629 1.58496,-0.1333 2.21323,0.13184c-0.52705,0.08789 -1.84893,0.21826 -2.21323,-0.13184z" fill="#cadce7"/><path d="M292.12646,249.08789c0.57861,-0.11133 1.33447,-0.07178 1.93799,-0.06445l0.17725,0.21533c-0.48193,0.15674 -1.68164,0.15381 -2.11523,-0.15088z" fill="#cadce7"/><path d="M290.01855,244.26123l0.15234,0.09814c0.01318,0.22998 0.02344,0.4585 0.03076,0.68848c0.02197,0.59912 0.11572,1.74463 -0.24463,2.13135c0.03076,-0.97266 0.05127,-1.94531 0.06152,-2.91797z" fill="#cadce7"/><path d="M49.3894,249.09814c0.51504,-0.18311 1.5145,-0.18457 1.97285,0.15088c-0.68174,0.07617 -1.08691,0.07031 -1.77583,0.05713z" fill="#cadce7"/><path d="M289.99072,63.65566l0.14941,0.05186c0.09668,0.87612 0.06738,1.54893 0.04688,2.42783l-0.19043,0.14868c-0.00879,-0.79072 0.09814,-1.92041 -0.00586,-2.62837z" fill="#cadce7"/><path d="M84.38511,63.36519l0.20713,0.2001c0.1021,0.70181 0.05112,1.40171 0.0312,2.11348l-0.17593,-0.14517c-0.18428,-0.57056 -0.01113,-1.19429 -0.04556,-1.87456z" fill="#cadce7"/><path d="M32.81045,249.10107c0.375,-0.15967 1.09424,-0.09814 1.53984,-0.08936l0.14121,0.18896c-0.36255,0.14502 -1.37476,0.15234 -1.68105,-0.09961z" fill="#cadce7"/><path d="M290.00391,34.79209l0.17578,0.14385c0.03955,1.06216 0.00586,1.84102 -0.0542,2.90654c-0.17285,-0.45176 -0.12012,-2.43677 -0.12158,-3.05039z" fill="#cadce7"/><path d="M289.98193,241.00488l0.15234,0.08203c0.09961,0.59912 0.07764,1.85742 -0.02197,2.4668c-0.1377,-0.36621 -0.09961,-1.99365 -0.13037,-2.54883z" fill="#cadce7"/></g></svg></svg>